<svg width="160" height="160" viewBox="0 0 160 160" fill="none" xmlns="http://www.w3.org/2000/svg">
<path d="M75 2.88675C78.094 1.10042 81.906 1.10042 85 2.88675L144.282 37.1132C147.376 38.8996 149.282 42.2008 149.282 45.7735V114.226C149.282 117.799 147.376 121.1 144.282 122.887L85 157.113C81.906 158.9 78.094 158.9 75 157.113L15.718 122.887C12.6239 121.1 10.718 117.799 10.718 114.226V45.7735C10.718 42.2008 12.624 38.8996 15.718 37.1132L75 2.88675Z" fill="#D0DFFB" fill-opacity="0.3"/>
<path fill-rule="evenodd" clip-rule="evenodd" d="M82 92.7765C91.6225 91.3291 99 83.0261 99 73C99 68.3768 97.4313 64.1199 94.7972 60.7327C94.4034 60.2263 93.4018 60.5254 92.3919 60.827C91.4288 61.1145 90.4581 61.4044 90 61C89.5464 60.5997 89.5963 59.5175 89.6462 58.4342C89.6994 57.2783 89.7527 56.121 89.1945 55.7896C86.2092 54.0175 82.7234 53 79 53C67.9543 53 59 61.9543 59 73C59 77.7945 60.6871 82.195 63.5 85.6402C63.7626 85.9618 64.042 85.7068 64.4243 85.3578C65.0492 84.7874 65.949 83.966 67.5 85C69.4183 86.2789 68.8966 87.7324 68.524 88.7707C68.3139 89.3562 68.1511 89.8097 68.5 90.0253C70.7439 91.4121 73.2824 92.3677 76 92.7765C76.2801 92.8186 76.154 91.4208 75.9721 89.4039C75.8184 87.701 75.625 85.5567 75.6026 83.4653C71.1902 82.0339 68 77.8895 68 73C68 66.9249 72.9249 62 79 62C85.0751 62 90 66.9249 90 73C90 77.9639 86.712 82.1598 82.1952 83.5288C82.2298 85.6528 82.0734 87.821 81.9505 89.5238C81.8095 91.4784 81.7128 92.8197 82 92.7765Z" fill="#A1B3D6" fill-opacity="0.4"/>
<path d="M84 73C84 75.7614 81.7614 76 79 76C76.2386 76 74 75.7614 74 73C74 70.2386 76.2386 68 79 68C81.7614 68 84 70.2386 84 73Z" fill="#B28CFF"/>
<path d="M68.9956 91.0456C70.7907 89.2505 70.7907 86.3291 68.9956 84.534C68.1257 83.6646 66.9697 83.1854 65.7398 83.1854C65.0288 83.1854 64.343 83.3462 63.7228 83.6495C61.536 80.5209 60.3842 76.8597 60.3842 73.0088C60.3842 63.1534 68.0831 54.989 77.9111 54.4214C78.5795 54.3826 79.0894 53.8098 79.0511 53.1419C79.0123 52.4735 78.4395 51.965 77.7716 52.0019C66.6627 52.6438 57.9609 61.871 57.9609 73.0088C57.9609 77.4524 59.319 81.6732 61.8936 85.2582C60.7172 87.0443 60.914 89.4757 62.484 91.0456C63.3539 91.9151 64.5099 92.3942 65.7398 92.3942C66.9697 92.3942 68.1257 91.9151 68.9956 91.0456ZM64.1973 86.2478C64.6225 85.8225 65.1812 85.6097 65.7398 85.6097C66.298 85.6097 66.8566 85.8225 67.2818 86.2478C68.1323 87.0978 68.1323 88.4819 67.2818 89.3319C66.4314 90.1824 65.0478 90.1824 64.1973 89.3319C63.3472 88.4819 63.3472 87.0983 64.1973 86.2478Z" fill="#222A3F"/>
<path d="M97.6857 93.9791C96.9199 93.9791 96.1999 94.1788 95.5751 94.5288C95.0212 92.7725 93.3769 91.4953 91.4399 91.4953C90.2143 91.4953 89.106 92.0066 88.317 92.8269C88.098 92.5998 87.8544 92.3969 87.5909 92.2214C90.3836 90.9712 92.8968 89.1141 94.9303 86.7618C98.2292 82.9445 100.046 78.06 100.046 73.0086C100.046 68.5674 98.688 64.3443 96.1138 60.7588C97.2902 58.9726 97.0935 56.5418 95.523 54.9713C93.7279 53.1762 90.807 53.1762 89.0114 54.9713C87.2163 56.7665 87.2163 59.6878 89.0114 61.483C89.9092 62.3808 91.088 62.8297 92.2672 62.8297C92.9583 62.8297 93.6484 62.674 94.2828 62.3656C96.4705 65.4951 97.6228 69.1592 97.6228 73.0086C97.6228 81.7737 91.6726 89.1827 83.2826 91.1344V84.6123C88.0876 82.8385 91.3704 78.1939 91.3704 73.0086C91.3704 66.19 85.8228 60.6424 79.0037 60.6424C72.1851 60.6424 66.6374 66.1895 66.6374 73.0086C66.6374 75.6997 67.4875 78.2587 69.0948 80.4081C70.4968 82.2827 72.4367 83.7387 74.6131 84.5693V102.392L73.0909 99.8952C71.8118 97.7955 69.1416 97.1143 67.0126 98.3432C64.9875 99.5126 64.1976 102.078 65.2198 104.195L69.7395 113.325C69.951 113.752 70.3805 114 70.8265 114C71.0072 114 71.1903 113.96 71.3629 113.874C71.9627 113.577 72.2082 112.85 71.9116 112.251L67.3966 103.13C66.9288 102.161 67.2921 100.98 68.2244 100.442C69.188 99.8858 70.4429 100.206 71.0219 101.156L74.79 107.339C75.0729 107.803 75.6296 108.022 76.1523 107.875C76.675 107.728 77.0364 107.252 77.0364 106.708V78.9077C77.0364 77.8538 77.894 76.9967 78.9479 76.9967C80.0017 76.9967 80.8593 77.8538 80.8593 78.9077V83.7004C80.8589 83.7089 80.8593 83.7174 80.8593 83.7264V101.92C80.8593 102.589 81.4014 103.131 82.0707 103.131C82.7401 103.131 83.2826 102.589 83.2826 101.92V95.8301C83.2826 94.7762 84.1397 93.9186 85.1936 93.9186C86.2475 93.9186 87.1051 94.7762 87.1051 95.8301V102.361C87.1051 103.03 87.6477 103.573 88.3165 103.573C88.9859 103.573 89.5284 103.03 89.5284 102.361V95.8301C89.5284 94.7762 90.386 93.9186 91.4399 93.9186C92.4938 93.9186 93.3509 94.7762 93.3509 95.8301V102.442C93.3509 103.112 93.8935 103.654 94.5628 103.654C95.2321 103.654 95.7742 103.112 95.7742 102.442V98.3139C95.7742 97.26 96.6318 96.4024 97.6857 96.4024C98.7396 96.4024 99.5972 97.26 99.5972 98.3139V112.787C99.5972 113.457 100.139 113.999 100.809 113.999C101.478 113.999 102.02 113.457 102.02 112.787V98.3139C102.02 95.9237 100.076 93.9791 97.6857 93.9791ZM90.7252 59.7697C89.8747 58.9192 89.8747 57.5356 90.7252 56.6851C91.1504 56.2599 91.7086 56.0475 92.2672 56.0475C92.8259 56.0475 93.3845 56.2599 93.8097 56.6851C94.6598 57.5356 94.6598 58.9192 93.8097 59.7697C92.9593 60.6197 91.5752 60.6197 90.7252 59.7697ZM69.0607 73.0086C69.0607 67.5258 73.5213 63.0652 79.0041 63.0652C84.4865 63.0652 88.9471 67.5258 88.9471 73.0086C88.9471 76.8694 86.6846 80.358 83.2826 81.9857V78.9077C83.2826 78.2275 83.1246 77.5832 82.8437 77.0095C83.9184 75.9735 84.5536 74.5294 84.5536 73.0086C84.5536 69.9482 82.0641 67.4587 79.0041 67.4587C75.9437 67.4587 73.4542 69.9482 73.4542 73.0086C73.4542 74.4849 74.0554 75.9035 75.0889 76.9376C74.7857 77.5288 74.6131 78.1986 74.6131 78.9077V81.9346C71.239 80.2856 69.0607 76.8661 69.0607 73.0086ZM76.7492 75.1741C76.1906 74.5961 75.8775 73.8303 75.8775 73.0086C75.8775 71.2845 77.28 69.882 79.0037 69.882C80.7278 69.882 82.1304 71.2845 82.1304 73.0086C82.1304 73.8421 81.7917 74.6358 81.2155 75.2158C80.5552 74.8085 79.7785 74.5734 78.9479 74.5734C78.1456 74.5734 77.3945 74.7929 76.7492 75.1741Z" fill="#222A3F"/>
<path d="M83.2934 54.8549C83.6123 54.8549 83.9249 54.7253 84.1501 54.4997C84.3757 54.2745 84.5053 53.9619 84.5053 53.6431C84.5053 53.3247 84.3757 53.012 84.1501 52.7864C83.9249 52.5612 83.6123 52.4316 83.2934 52.4316C82.9751 52.4316 82.6624 52.5612 82.4373 52.7864C82.2116 53.012 82.082 53.3247 82.082 53.6431C82.082 53.9619 82.2116 54.2745 82.4373 54.4997C82.6624 54.7253 82.9751 54.8549 83.2934 54.8549Z" fill="#222A3F"/>
</svg>
