<svg width="160" height="160" viewBox="0 0 160 160" fill="none" xmlns="http://www.w3.org/2000/svg">
<path d="M75 2.88675C78.094 1.10042 81.906 1.10042 85 2.88675L144.282 37.1132C147.376 38.8996 149.282 42.2008 149.282 45.7735V114.226C149.282 117.799 147.376 121.1 144.282 122.887L85 157.113C81.906 158.9 78.094 158.9 75 157.113L15.718 122.887C12.6239 121.1 10.718 117.799 10.718 114.226V45.7735C10.718 42.2008 12.624 38.8996 15.718 37.1132L75 2.88675Z" fill="#D0DFFB" fill-opacity="0.3"/>
<g clip-path="url(#clip0_14_13529)">
<path d="M102 73H103.5L100.5 92.5H59.5L59 88.5C59.3333 88 60 86.6 60 85C60 83 60 82.5 59.5 81C59.1 79.8 58 79.5 57.5 79.5L56.5 73.5L58 73L71.5 82L79.5 68.5H80.5L88.5 82L102 73Z" fill="#A0B3D6" fill-opacity="0.4"/>
<path d="M71.5 82L75.5 75.5L68.5 70L67 70.5L64.5 77L71.5 82Z" fill="#5FA9FF"/>
<path d="M95 77L93 70.5H91.5L84 74.5L88.5 82L95 77Z" fill="#5FA9FF"/>
<ellipse cx="58.1992" cy="84" rx="2.5" ry="4" fill="#5FA9FF"/>
<ellipse cx="80" cy="84" rx="2.5" ry="4" fill="#5FA9FF"/>
<ellipse cx="101.5" cy="84" rx="2.5" ry="4" fill="#5FA9FF"/>
<path d="M103.836 66.2891C102.091 66.2891 100.672 67.7085 100.672 69.4531C100.672 70.3637 101.059 71.1851 101.677 71.763L95.8648 75.7438L94.0168 70.1998C95.0825 69.6901 95.8203 68.6016 95.8203 67.3438C95.8203 65.5991 94.4009 64.1797 92.6562 64.1797C90.9116 64.1797 89.4922 65.5991 89.4922 67.3438C89.4922 68.2455 89.8721 69.0598 90.4794 69.6366L84.7192 73.4765L81.5761 67.9761C82.5241 67.4291 83.1641 66.4054 83.1641 65.2344C83.1641 63.4897 81.7447 62.0703 80 62.0703C78.2553 62.0703 76.8359 63.4897 76.8359 65.2344C76.8359 66.4054 77.4759 67.4291 78.4239 67.9761L75.2808 73.4765L69.5206 69.6366C70.128 69.0597 70.5078 68.2455 70.5078 67.3438C70.5078 65.5991 69.0884 64.1797 67.3438 64.1797C65.5991 64.1797 64.1797 65.5991 64.1797 67.3438C64.1797 68.6016 64.9175 69.6901 65.9831 70.1998L64.1352 75.7438L58.3232 71.763C58.9409 71.1851 59.3281 70.3637 59.3281 69.4531C59.3281 67.7085 57.9087 66.2891 56.1641 66.2891C54.4194 66.2891 53 67.7085 53 69.4531C53 70.8793 53.9487 72.0876 55.248 72.4814L56.4712 79.8226C55.6286 80.7662 55.1094 82.3974 55.1094 84.2188C55.1094 87.1177 56.3743 89.3283 58.0819 89.4828L59.3425 97.0483C59.4272 97.5569 59.8672 97.9297 60.3828 97.9297H75.2539C75.8364 97.9297 76.3086 97.4575 76.3086 96.875C76.3086 96.2925 75.8364 95.8203 75.2539 95.8203H61.2763L60.9248 93.7109H99.0751L98.7236 95.8203H84.7461C84.1636 95.8203 83.6914 96.2925 83.6914 96.875C83.6914 97.4575 84.1636 97.9297 84.7461 97.9297H99.6172C100.133 97.9297 100.573 97.5569 100.658 97.0483L101.918 89.4828C103.626 89.3283 104.891 87.1177 104.891 84.2188C104.891 82.3974 104.371 80.7662 103.529 79.8226L104.752 72.4814C106.051 72.0876 107 70.8793 107 69.4531C107 67.7085 105.581 66.2891 103.836 66.2891ZM92.6562 66.2891C93.2378 66.2891 93.7109 66.7622 93.7109 67.3438C93.7109 67.9253 93.2378 68.3984 92.6562 68.3984C92.0747 68.3984 91.6016 67.9253 91.6016 67.3438C91.6016 66.7622 92.0747 66.2891 92.6562 66.2891ZM92.0923 71.0966L94.0547 76.9837L88.7855 80.5926L85.7682 75.3124L92.0923 71.0966ZM80 64.1797C80.5816 64.1797 81.0547 64.6528 81.0547 65.2344C81.0547 65.8159 80.5816 66.2891 80 66.2891C79.4184 66.2891 78.9453 65.8159 78.9453 65.2344C78.9453 64.6528 79.4184 64.1797 80 64.1797ZM67.3438 66.2891C67.9253 66.2891 68.3984 66.7622 68.3984 67.3438C68.3984 67.9253 67.9253 68.3984 67.3438 68.3984C66.7622 68.3984 66.2891 67.9253 66.2891 67.3438C66.2891 66.7622 66.7622 66.2891 67.3438 66.2891ZM67.9077 71.0966L74.2317 75.3124L71.2145 80.5926L65.9453 76.9836L67.9077 71.0966ZM56.1641 68.3984C56.7456 68.3984 57.2188 68.8716 57.2188 69.4531C57.2188 70.0347 56.7456 70.5078 56.1641 70.5078C55.5825 70.5078 55.1094 70.0347 55.1094 69.4531C55.1094 68.8716 55.5825 68.3984 56.1641 68.3984ZM57.2188 84.2188C57.2188 82.5125 57.7863 81.3648 58.1901 81.0932C58.5131 80.8809 59.3281 82.2346 59.3281 84.2188C59.3281 85.927 58.7592 87.0755 58.3581 87.3434C57.9833 87.592 57.2188 86.0476 57.2188 84.2188ZM60.5734 91.6016L60.0757 88.6149C60.9183 87.6713 61.4375 86.0401 61.4375 84.2188C61.4375 81.3198 60.1726 79.1091 58.465 78.9547L57.6114 73.8322L70.9664 82.9795C71.4744 83.3274 72.1724 83.1676 72.4781 82.6325L80 69.4695L87.5217 82.6326C87.8285 83.1697 88.5269 83.3264 89.0334 82.9796L102.388 73.8324L101.535 78.9548C99.8274 79.1091 98.5625 81.3198 98.5625 84.2188C98.5625 86.0389 99.0811 87.6693 99.9244 88.6143L99.4266 91.6016H60.5734ZM101.727 87.3828C101.43 87.3828 100.672 86.1577 100.672 84.2188C100.672 82.3132 101.417 81.0547 101.727 81.0547C102.01 81.0547 102.781 82.2482 102.781 84.2188C102.781 86.1243 102.036 87.3828 101.727 87.3828ZM103.836 70.5078C103.254 70.5078 102.781 70.0347 102.781 69.4531C102.781 68.8716 103.254 68.3984 103.836 68.3984C104.417 68.3984 104.891 68.8716 104.891 69.4531C104.891 70.0347 104.417 70.5078 103.836 70.5078Z" fill="#222A3F"/>
<path d="M80 78.9453C78.1962 78.9453 76.8359 81.2124 76.8359 84.2188C76.8359 87.2251 78.1962 89.4922 80 89.4922C81.8038 89.4922 83.1641 87.2251 83.1641 84.2188C83.1641 81.2124 81.8038 78.9453 80 78.9453ZM80 87.3828C79.6806 87.3828 78.9453 86.0998 78.9453 84.2188C78.9453 82.3132 79.6908 81.0547 80 81.0547C80.3194 81.0547 81.0547 82.3377 81.0547 84.2188C81.0547 86.1243 80.3092 87.3828 80 87.3828Z" fill="#222A3F"/>
<path d="M80 97.9297C80.5825 97.9297 81.0547 97.4575 81.0547 96.875C81.0547 96.2925 80.5825 95.8203 80 95.8203C79.4175 95.8203 78.9453 96.2925 78.9453 96.875C78.9453 97.4575 79.4175 97.9297 80 97.9297Z" fill="#222A3F"/>
</g>
<defs>
<clipPath id="clip0_14_13529">
<rect width="54" height="54" fill="white" transform="translate(53 53)"/>
</clipPath>
</defs>
</svg>
