<svg width="118" height="128" viewBox="0 0 118 128" fill="none" xmlns="http://www.w3.org/2000/svg">
<g filter="url(#filter0_d_14_16429)">
<path d="M54 15.8868C57.094 14.1004 60.906 14.1004 64 15.8868L92.9711 32.6132C96.0652 34.3996 97.9711 37.7008 97.9711 41.2735V74.7265C97.9711 78.2992 96.0652 81.6004 92.9711 83.3867L64 100.113C60.906 101.9 57.094 101.9 54 100.113L25.0289 83.3867C21.9348 81.6004 20.0289 78.2992 20.0289 74.7265V41.2735C20.0289 37.7008 21.9348 34.3996 25.0289 32.6132L54 15.8868Z" fill="white"/>
</g>
<path d="M44 66.5L43.5 74.5L43 75.5L44 75V74H44.5H47L50 75C52.3333 75.6667 57.4 77 59 77C60.6 77 61.6667 76.3333 62 76L73 68V66.5L71 65L63 69L61.5 68H57L56 67.5L53 65.5C52.6667 65.3333 51.7 65 50.5 65C49.3 65 47 65.6667 46 66H44L43 64.5L44 66.5Z" fill="#D9D8E4"/>
<path d="M59.5 63.5H63L63.5 62V56.5C64 56.3333 65.2 55.8 66 55C67 54 67.5 51.5 67.5 51C67.5 50.5 67.5 50 67 48C66.6 46.4 64.8333 45.3333 64 45L63.5 46V51C63.5 52 62.5 52.5 61 52.5C59.8 52.5 59.1667 51.1667 59 50.5V46L58.5 45L57 46C56.3333 46.8333 55 48.8 55 50C55 51.5 55.5 52.5 56 54C56.4 55.2 58.1667 56.1667 59 56.5V60.5L59.5 63.5Z" fill="#5FA9FF"/>
<path d="M72.6766 47.9676H72.2712C72.0315 47.1259 71.6967 46.3182 71.2711 45.5547L71.5593 45.2664C71.889 44.9368 72.0705 44.4972 72.0705 44.0285C72.0705 43.5599 71.889 43.1203 71.559 42.7903L69.6388 40.8723C69.309 40.5406 68.8689 40.3579 68.3993 40.3579C67.9299 40.3579 67.4897 40.5406 67.1615 40.8707L66.8737 41.1586C66.1095 40.7316 65.3016 40.3962 64.4604 40.1566V39.7512C64.4604 38.7856 63.6749 38 62.7092 38H59.9943C59.0287 38 58.2431 38.7856 58.2431 39.7512V40.1566C57.402 40.3961 56.5936 40.7316 55.8279 41.1589L55.5414 40.8723C55.2115 40.5406 54.7713 40.3579 54.3019 40.358C53.8324 40.358 53.3923 40.5407 53.0642 40.8708L51.1443 42.7907C50.8145 43.1203 50.6331 43.5599 50.6331 44.0286C50.6331 44.4973 50.8145 44.9368 51.1442 45.2664L51.4323 45.5546C51.0049 46.3205 50.6699 47.1283 50.4316 47.9676H50.0246C49.059 47.9676 48.2734 48.7532 48.2734 49.7188V52.4361C48.2734 53.4017 49.059 54.1873 50.0246 54.1873H50.4316C50.6699 55.0266 51.0049 55.8344 51.4323 56.6004L51.1442 56.8886C50.8145 57.2182 50.633 57.6578 50.633 58.1264C50.633 58.595 50.8145 59.0346 51.1441 59.3642L53.0625 61.2826C53.3923 61.6144 53.8324 61.797 54.3018 61.797H54.3019C54.7713 61.797 55.2115 61.6144 55.5397 61.2843L55.8279 60.9961C56.5943 61.4237 57.4027 61.7588 58.243 61.997V62.4038C58.243 63.3694 59.0286 64.155 59.9942 64.155H62.7092C63.6748 64.155 64.4604 63.3694 64.4604 62.4038V61.997C65.3009 61.7587 66.1087 61.4238 66.8737 60.9964L67.1599 61.2826C67.4897 61.6144 67.9298 61.797 68.3993 61.797C68.8688 61.797 69.309 61.6143 69.6368 61.2846L71.5593 59.3642C71.8889 59.0345 72.0704 58.5949 72.0704 58.1264C72.0704 57.6577 71.8889 57.2182 71.5593 56.8886L71.271 56.6003C71.6966 55.8367 72.0313 55.0291 72.2711 54.1873H72.6766C73.6422 54.1873 74.4278 53.4017 74.4278 52.4361V49.7188C74.4278 48.7532 73.6423 47.9676 72.6766 47.9676ZM62.898 62.4038C62.898 62.5061 62.8116 62.5925 62.7092 62.5925H59.9943C59.892 62.5925 59.8056 62.5061 59.8056 62.4038V61.3895V56.4644C59.8056 56.1377 59.6023 55.8455 59.296 55.7319C57.1967 54.9533 55.7863 52.9329 55.7863 50.7044C55.7863 48.9382 56.6657 47.2827 58.1383 46.276C58.2044 46.2309 58.2629 46.194 58.314 46.1638C58.3112 46.2653 58.304 46.3619 58.3001 46.4123C58.2943 46.4916 58.2896 46.5542 58.2896 46.6163V50.3034C58.2896 51.9958 59.612 53.4092 61.3 53.5212C61.3344 53.5234 61.369 53.5234 61.4034 53.5212C63.0902 53.4093 64.4116 51.9959 64.4116 50.3034V46.6163C64.4116 46.5545 64.407 46.4923 64.4012 46.4135C64.3975 46.3628 64.3903 46.2657 64.3876 46.1637C64.4385 46.1939 64.4966 46.2306 64.5625 46.2757C66.0355 47.2826 66.9149 48.9382 66.9149 50.7043C66.9149 52.9326 65.5053 54.9531 63.4072 55.7319C63.101 55.8456 62.8978 56.1377 62.8978 56.4643V61.3894V62.4038H62.898ZM72.8654 52.4361C72.8654 52.5367 72.7772 52.6249 72.6766 52.6249H71.6646C71.2996 52.6249 70.9832 52.8776 70.9027 53.2336C70.6553 54.3268 70.2268 55.3605 69.6291 56.306C69.4339 56.6148 69.4788 57.0176 69.737 57.2758L70.4546 57.9934C70.5012 58.04 70.5081 58.0967 70.5081 58.1264C70.5081 58.156 70.5012 58.2128 70.4548 58.259L68.5307 60.181C68.4867 60.2252 68.435 60.2345 68.3993 60.2345C68.3638 60.2345 68.3121 60.2252 68.2664 60.1793L67.5489 59.4617C67.2902 59.2031 66.887 59.1586 66.5783 59.3542C65.9114 59.7768 65.2016 60.1121 64.4604 60.3599V56.984C66.8841 55.856 68.4775 53.398 68.4775 50.7042C68.4775 48.4217 67.3436 46.2839 65.4444 44.9858C65.1535 44.7869 64.2687 44.182 63.4949 44.6274C62.7351 45.0649 62.8108 46.0904 62.8431 46.5284C62.8459 46.5664 62.8486 46.5984 62.8492 46.6163V50.3034C62.8492 51.1586 62.1957 51.8755 61.3518 51.9579C60.5067 51.8754 59.8521 51.1585 59.8521 50.3034L59.852 46.6219C59.8528 46.5984 59.8556 46.5664 59.8584 46.5282C59.891 46.0905 59.9673 45.0655 59.2081 44.6278C58.4346 44.1816 57.5485 44.7868 57.257 44.9858C55.3577 46.284 54.2238 48.4218 54.2238 50.7043C54.2238 53.3985 55.8181 55.8567 58.2431 56.9843V60.36C57.5018 60.1122 56.7911 59.7767 56.1223 59.3539C55.9937 59.2727 55.849 59.2331 55.705 59.2331C55.5033 59.2331 55.3031 59.3111 55.1524 59.4619L54.4334 60.181C54.3894 60.2253 54.3376 60.2346 54.302 60.2346C54.2663 60.2346 54.2147 60.2253 54.1691 60.1794L52.2491 58.2594C52.2025 58.2128 52.1955 58.156 52.1955 58.1264C52.1955 58.0968 52.2025 58.04 52.2491 57.9934L52.9666 57.2758C53.2249 57.0176 53.2697 56.6148 53.0746 56.306C52.4738 55.3555 52.0454 54.3222 51.8012 53.2349C51.7212 52.8783 51.4045 52.6248 51.039 52.6248H50.0248C49.9243 52.6248 49.8361 52.5366 49.8361 52.436V49.7188C49.8361 49.6164 49.9225 49.53 50.0248 49.53H51.039C51.4045 49.53 51.7212 49.2765 51.8012 48.9199C52.0454 47.8326 52.4737 46.7992 53.0746 45.8488C53.2697 45.54 53.2249 45.1372 52.9666 44.879L52.249 44.1614C52.2025 44.1148 52.1955 44.0581 52.1955 44.0284C52.1955 43.9988 52.2025 43.942 52.2491 43.8954L54.1707 41.9737C54.2147 41.9295 54.2664 41.9202 54.302 41.9202C54.3377 41.9202 54.3894 41.9295 54.435 41.9754L55.1525 42.6929C55.4109 42.9513 55.8137 42.996 56.1224 42.8009C57.0717 42.2008 58.1061 41.7715 59.1966 41.5251C59.5528 41.4447 59.8057 41.1282 59.8057 40.7631V39.7512C59.8057 39.6489 59.8921 39.5625 59.9945 39.5625H62.7094C62.8117 39.5625 62.8981 39.6489 62.8981 39.7512V40.7633C62.8981 41.1284 63.151 41.4448 63.5072 41.5253C64.5987 41.7719 65.632 42.2009 66.5784 42.8007C66.8873 42.9963 67.2904 42.9517 67.549 42.6932L68.2682 41.974C68.3121 41.9297 68.3639 41.9204 68.3995 41.9204C68.4351 41.9204 68.4868 41.9297 68.5328 41.9759L70.4547 43.8956C70.5013 43.9422 70.5083 43.9989 70.5083 44.0286C70.5083 44.0583 70.5013 44.115 70.4547 44.1616L69.7372 44.8792C69.4789 45.1375 69.4341 45.5403 69.6292 45.849C70.2269 46.7945 70.6554 47.8282 70.9029 48.9214C70.9834 49.2774 71.2998 49.5302 71.6648 49.5302H72.6768C72.7791 49.5302 72.8655 49.6166 72.8655 49.7189V52.4361H72.8654Z" fill="#222A3F"/>
<path d="M65.9046 72.3992C65.5995 72.7043 65.5995 73.1989 65.9046 73.5041C66.0572 73.6566 66.2571 73.7329 66.457 73.7329C66.6569 73.7329 66.8568 73.6566 67.0094 73.5041L67.0116 73.5019C67.3167 73.1968 67.3156 72.7032 67.0104 72.3982C66.7053 72.0931 66.2097 72.0943 65.9046 72.3992Z" fill="#222A3F"/>
<path fill-rule="evenodd" clip-rule="evenodd" d="M40.035 65.52C40.0475 65.52 40.0599 65.5197 40.0722 65.5191H42.7682C43.0458 65.5191 43.2802 65.7535 43.2802 66.0312V74.2316C43.2802 74.508 43.0458 74.7414 42.7682 74.7414H40.0831C40.0672 74.7405 40.0511 74.74 40.035 74.74C39.6015 74.74 39.25 75.0914 39.25 75.525C39.25 75.9585 39.6015 76.31 40.035 76.31C40.0683 76.31 40.1011 76.3079 40.1333 76.3039H42.7682C43.6846 76.3039 44.4635 75.707 44.7374 74.8821H46.4951C46.6504 74.8821 46.6504 74.8821 46.8309 74.933C46.8965 74.9515 46.9764 74.974 47.0795 75.0017L55.1648 77.1648C55.516 77.2597 55.8385 77.3531 56.1504 77.4434L56.1642 77.4474L56.1647 77.4475C57.2004 77.7476 58.071 77.9999 58.9784 77.9999C60.0042 77.9999 61.0767 77.6775 62.4874 76.7374L62.4965 76.7313L62.5077 76.7234L64.0512 75.6227C64.4026 75.3722 64.4843 74.8844 64.2337 74.5331C63.9832 74.1817 63.4952 74.1 63.1442 74.3506L61.6108 75.4439C59.5637 76.8055 58.6944 76.5538 56.599 75.9466L56.5945 75.9453C56.2731 75.8522 55.9407 75.7559 55.5705 75.6559L47.4846 73.4928C47.3899 73.4673 47.3157 73.4464 47.2547 73.4292C46.9597 73.3461 46.8494 73.3198 46.4952 73.3198H44.8427V66.9431H45.687C45.6983 66.9431 45.7094 66.9429 45.7206 66.9424L45.7651 66.9405C46.42 66.9126 46.6032 66.8947 47.3534 66.5985C50.254 65.4539 52.493 65.3178 55.3547 68.0118L55.3933 68.0481C55.8824 68.5077 56.164 68.6949 56.9942 68.6949H61.2437C61.7425 68.6949 62.1774 68.9717 62.4041 69.3796L62.4065 69.3838L62.4118 69.393C62.5131 69.5802 62.5707 69.7944 62.5707 70.0219C62.5707 70.7525 61.9755 71.3468 61.2438 71.3468H54.3567C53.9253 71.3468 53.5755 71.6965 53.5755 72.128C53.5755 72.5595 53.9253 72.9092 54.3567 72.9092H61.2438C62.8371 72.9092 64.1332 71.614 64.1332 70.0219C64.1332 69.8055 64.1085 69.5949 64.0632 69.392L70.2371 66.2214C70.8215 65.9214 71.6205 65.9536 72.0172 66.5973C72.3681 67.1647 72.1751 67.9189 71.5685 68.3514L68.8602 70.2803C68.5087 70.5306 68.4267 71.0184 68.677 71.3699C68.8294 71.5839 69.0699 71.698 69.314 71.698C69.4708 71.698 69.6291 71.6509 69.7665 71.5531L72.4751 69.624C73.7615 68.7069 74.1358 67.0524 73.3466 65.7766C72.5706 64.5171 70.927 64.1107 69.5233 64.8313L63.321 68.0164C62.7953 67.4719 62.0586 67.1322 61.2437 67.1322H56.9941C56.7561 67.1322 56.698 67.1133 56.6941 67.112C56.6596 67.0939 56.5507 66.9915 56.4633 66.9094L56.4246 66.873C52.9865 63.6366 50.0823 63.8416 46.7796 65.145C46.2453 65.356 46.235 65.3564 45.6983 65.3793L44.7374 65.38C44.4637 64.5542 43.6847 63.9565 42.7682 63.9565H40.1372C40.1037 63.9522 40.0696 63.95 40.035 63.95C39.6015 63.95 39.25 64.3014 39.25 64.735C39.25 65.1685 39.6015 65.52 40.035 65.52Z" fill="#222A3F"/>
<defs>
<filter id="filter0_d_14_16429" x="0.0273438" y="0.546997" width="117.945" height="126.906" filterUnits="userSpaceOnUse" color-interpolation-filters="sRGB">
<feFlood flood-opacity="0" result="BackgroundImageFix"/>
<feColorMatrix in="SourceAlpha" type="matrix" values="0 0 0 0 0 0 0 0 0 0 0 0 0 0 0 0 0 0 127 0" result="hardAlpha"/>
<feOffset dy="6"/>
<feGaussianBlur stdDeviation="10"/>
<feColorMatrix type="matrix" values="0 0 0 0 0.237802 0 0 0 0 0.273754 0 0 0 0 0.4625 0 0 0 0.08 0"/>
<feBlend mode="normal" in2="BackgroundImageFix" result="effect1_dropShadow_14_16429"/>
<feBlend mode="normal" in="SourceGraphic" in2="effect1_dropShadow_14_16429" result="shape"/>
</filter>
</defs>
</svg>
