<svg width="118" height="128" viewBox="0 0 118 128" fill="none" xmlns="http://www.w3.org/2000/svg">
<g filter="url(#filter0_d_14_16447)">
<path d="M54 15.8868C57.094 14.1004 60.906 14.1004 64 15.8868L92.9711 32.6132C96.0652 34.3996 97.9711 37.7008 97.9711 41.2735V74.7265C97.9711 78.2992 96.0652 81.6004 92.9711 83.3867L64 100.113C60.906 101.9 57.094 101.9 54 100.113L25.0289 83.3867C21.9348 81.6004 20.0289 78.2992 20.0289 74.7265V41.2735C20.0289 37.7008 21.9348 34.3996 25.0289 32.6132L54 15.8868Z" fill="white"/>
</g>
<path d="M59.2832 75.9659C55.8237 75.8639 52.9422 74.3934 50.8002 71.5289C49.6017 69.9224 48.3862 68.3244 47.2812 66.6584C45.5047 64.0064 44.0342 61.2014 42.7847 58.2689C42.2322 56.9599 41.6372 55.6594 41.2972 54.2654C40.8807 52.5484 40.8977 50.8314 41.3397 49.1314C41.9857 46.6664 43.3542 44.6944 45.4112 43.1984C46.2102 42.6204 47.0517 42.1444 48.0632 42.0764C49.7377 41.9659 51.1062 42.5524 52.0327 43.9464C52.7722 45.0684 53.4437 46.2414 54.0472 47.4399C55.0247 49.3779 54.3362 51.7409 52.5172 52.9139C51.8627 53.3389 51.1827 53.7129 50.5027 54.1039C49.5932 54.6224 49.3212 55.4554 49.7717 56.3989C51.1487 59.3144 52.7552 62.1024 54.6082 64.7374C55.0672 65.3919 55.8917 65.6384 56.6227 65.2729C57.2857 64.9499 57.9147 64.5589 58.5522 64.1849C60.2607 63.1734 62.2667 63.3349 63.7712 64.6354C64.0687 64.8904 64.3237 65.2049 64.5277 65.5364C65.1312 66.5309 65.7092 67.5424 66.2872 68.5539C67.5112 70.7129 66.8227 73.2884 64.6807 74.5634C63.2442 75.4219 61.0427 75.9999 59.2832 75.9659ZM63.9837 73.4584C65.3777 72.7274 66.0237 70.9339 65.3522 69.5824C64.8422 68.5624 64.2302 67.5934 63.6777 66.5904C63.1507 65.6299 62.3857 65.0009 61.2722 64.8479C60.5582 64.7459 59.8952 64.8819 59.2662 65.2899C60.8387 68.0184 62.4027 70.7299 63.9837 73.4584Z" fill="#D9D8E4" stroke="#222A3F" stroke-width="0.3"/>
<path d="M51 53L46 44L47 43L49 42.5L51 44L54 49L53.5 51L51 53Z" fill="#5FA9FF"/>
<path d="M63.5 74L58.5 65L60.5 64L62.5 64.5L66.5 70L66 72L65 73.5L63.5 74Z" fill="#5FA9FF"/>
<path d="M59.2832 75.9659C55.8237 75.8639 52.9422 74.3934 50.8002 71.5289C49.6017 69.9224 48.3862 68.3244 47.2812 66.6584C45.5047 64.0064 44.0342 61.2014 42.7847 58.2689C42.2322 56.9599 41.6372 55.6594 41.2972 54.2654C40.8807 52.5484 40.8977 50.8314 41.3397 49.1314C41.9857 46.6664 43.3542 44.6944 45.4112 43.1984C46.2102 42.6204 47.0517 42.1444 48.0632 42.0764C49.7377 41.9659 51.1062 42.5524 52.0327 43.9464C52.7722 45.0684 53.4437 46.2414 54.0472 47.4399C55.0247 49.3779 54.3362 51.7409 52.5172 52.9139C51.8627 53.3389 51.1827 53.7129 50.5027 54.1039C49.5932 54.6224 49.3212 55.4554 49.7717 56.3989C51.1487 59.3144 52.7552 62.1024 54.6082 64.7374C55.0672 65.3919 55.8917 65.6384 56.6227 65.2729C57.2857 64.9499 57.9147 64.5589 58.5522 64.1849C60.2607 63.1734 62.2667 63.3349 63.7712 64.6354C64.0687 64.8904 64.3237 65.2049 64.5277 65.5364C65.1312 66.5309 65.7092 67.5424 66.2872 68.5539C67.5112 70.7129 66.8227 73.2884 64.6807 74.5634C63.2442 75.4219 61.0427 75.9999 59.2832 75.9659ZM51.6077 52.0044C51.8542 51.8089 52.0752 51.6814 52.2537 51.5029C53.2907 50.4234 53.5117 49.0974 52.8062 47.7714C52.2452 46.7089 51.6332 45.6634 50.9787 44.6519C50.1117 43.3174 48.2247 42.9349 46.8647 43.7764C46.0402 44.2864 45.2837 44.8644 44.6462 45.6039C42.4107 48.1964 41.7562 51.1544 42.6742 54.4354C42.9972 55.5744 43.4987 56.6709 43.9577 57.7674C44.8757 59.9434 45.9552 62.0344 47.1537 64.0659C48.6072 66.5309 50.2562 68.8599 52.0582 71.0784C52.7977 71.9964 53.6477 72.7784 54.6677 73.3734C56.6907 74.5634 58.8582 74.9289 61.1532 74.5039C61.7142 74.4019 62.2582 74.2234 62.8532 74.0619C61.2552 71.2994 59.7082 68.6134 58.1442 65.9104C57.8892 66.0549 57.6682 66.1739 57.4472 66.3014C55.9682 67.1514 54.3702 66.6499 53.5117 65.4089C51.6417 62.7144 50.0097 59.8924 48.6157 56.9259C47.9017 55.3959 48.3777 53.8574 49.8397 53.0074C50.0437 52.8884 50.2562 52.7609 50.4687 52.6334C50.1967 52.1659 49.9502 51.7239 49.6952 51.2904C49.1172 50.2789 48.5222 49.2759 47.9527 48.2644C47.7317 47.8734 47.8337 47.4909 48.1652 47.3209C48.4882 47.1509 48.8452 47.2784 49.0577 47.6439C49.7802 48.8849 50.4942 50.1344 51.2167 51.3754C51.3442 51.5794 51.4632 51.7749 51.6077 52.0044ZM63.9837 73.4584C65.3777 72.7274 66.0237 70.9339 65.3522 69.5824C64.8422 68.5624 64.2302 67.5934 63.6777 66.5904C63.1507 65.6299 62.3857 65.0009 61.2722 64.8479C60.5582 64.7459 59.8952 64.8819 59.2662 65.2899C60.8387 68.0184 62.4027 70.7299 63.9837 73.4584Z" fill="#222A3F" stroke="#222A3F" stroke-width="0.3"/>
<path d="M75.0002 58.8555C74.9407 63.2925 73.5297 67.0665 70.6907 70.2965C70.5037 70.509 70.3082 70.713 70.1042 70.917C69.8067 71.223 69.4242 71.2655 69.1607 71.036C68.8717 70.781 68.8717 70.407 69.1607 70.0585C69.7302 69.3785 70.3422 68.724 70.8607 68.0015C72.2547 66.0635 73.1302 63.9045 73.4957 61.55C73.8357 59.3655 73.7507 57.1895 73.1982 55.0475C72.6457 52.914 71.6852 50.976 70.3082 49.2505C68.4892 46.9555 66.1942 45.3065 63.4572 44.3035C62.5392 43.972 61.5702 43.785 60.6182 43.5385C60.1847 43.428 59.9552 43.0965 60.0742 42.714C60.1677 42.4165 60.4567 42.2295 60.8222 42.289C62.3182 42.527 63.7462 42.9775 65.1232 43.6065C66.8742 44.414 68.4467 45.4935 69.8322 46.8365C71.1497 48.1115 72.2377 49.565 73.0707 51.2055C74.0907 53.1945 74.6857 55.3025 74.9152 57.5125C74.9832 58.014 74.9832 58.507 75.0002 58.8555Z" fill="#222A3F" stroke="#222A3F" stroke-width="0.3"/>
<path d="M57.6091 59.646C57.1756 59.646 56.7421 59.646 56.3001 59.646C55.8751 59.6375 55.6201 59.4165 55.6116 59.0085C55.5946 58.49 55.5861 57.9715 55.6286 57.4615C55.7051 56.552 56.5126 55.889 57.5496 55.8295C58.1106 55.7955 58.3996 55.5745 58.3826 55.1665C58.3656 54.7755 58.0681 54.5715 57.5156 54.5715C57.0481 54.563 56.5891 54.5715 56.1216 54.5375C55.8581 54.5205 55.6796 54.3335 55.6286 54.0785C55.5691 53.8235 55.6371 53.5855 55.8581 53.4325C55.9686 53.356 56.1131 53.288 56.2491 53.288C56.8441 53.288 57.4476 53.2625 58.0341 53.339C59.0881 53.475 59.7171 54.3335 59.6491 55.4385C59.5896 56.3225 58.7566 57.079 57.7961 57.113C57.7111 57.113 57.6346 57.113 57.5496 57.113C57.1671 57.13 56.9461 57.317 56.8781 57.691C56.8526 57.827 56.8696 57.9715 56.8526 58.116C56.8271 58.337 56.9291 58.3965 57.1331 58.388C57.7196 58.3795 58.3061 58.3795 58.8926 58.388C59.3686 58.388 59.6406 58.6345 59.6406 59.034C59.6321 59.4335 59.3601 59.663 58.8756 59.663C58.8671 59.663 58.8586 59.663 58.8416 59.663C58.4336 59.646 58.0256 59.646 57.6091 59.646Z" fill="#222A3F" stroke="#222A3F" stroke-width="0.3"/>
<path d="M66.9159 55.6339C67.3664 55.6339 67.7744 55.5575 68.1399 55.651C69.1429 55.889 69.6784 56.6199 69.7124 57.6824C69.7294 58.0904 69.7209 58.4899 69.7124 58.8979C69.7039 59.3654 69.4404 59.6544 69.0579 59.6459C68.6839 59.6289 68.4459 59.3484 68.4459 58.8894C68.4459 58.4984 68.4544 58.0989 68.4459 57.7079C68.4374 57.2064 68.1144 56.8579 67.6809 56.8664C67.2474 56.8749 66.9414 57.1979 66.9244 57.6909C66.9074 58.1754 66.9329 58.6684 66.8819 59.1444C66.8224 59.6289 66.2359 59.8244 65.8874 59.4844C65.7599 59.3654 65.6664 59.1529 65.6664 58.9829C65.6494 57.2404 65.6494 55.498 65.6579 53.7555C65.6579 53.3475 65.8874 53.101 66.2529 53.084C66.6184 53.067 66.8819 53.2795 66.9074 53.6875C66.9414 54.2145 66.9244 54.7415 66.9244 55.2685C66.9159 55.3875 66.9159 55.5149 66.9159 55.6339Z" fill="#222A3F" stroke="#222A3F" stroke-width="0.3"/>
<path d="M64.6978 56.3394C64.6978 57.2234 64.6978 58.0989 64.6978 58.9829C64.6978 59.2464 64.5788 59.4504 64.3408 59.5694C64.1198 59.6799 63.8818 59.6799 63.7203 59.5099C63.5843 59.3569 63.4738 59.1359 63.4568 58.9404C63.4228 58.4389 63.4313 57.9289 63.4483 57.4189C63.4568 57.1894 63.3718 57.1129 63.1508 57.1214C62.7598 57.1299 62.3603 57.1299 61.9693 57.0959C61.2638 57.0449 60.6943 56.4669 60.6688 55.7614C60.6433 55.0814 60.6433 54.4014 60.6603 53.7299C60.6688 53.2964 60.9068 53.0669 61.2893 53.0754C61.6633 53.0839 61.8928 53.3219 61.9013 53.7554C61.9098 54.3164 61.9013 54.8689 61.9098 55.4299C61.9098 55.7954 61.9863 55.8634 62.3603 55.8719C62.6153 55.8719 62.8703 55.8549 63.1168 55.8719C63.3633 55.8889 63.4568 55.8124 63.4483 55.5489C63.4313 54.9454 63.4313 54.3334 63.4483 53.7299C63.4568 53.3389 63.6693 53.1179 64.0008 53.0839C64.4088 53.0414 64.6893 53.2964 64.6978 53.7384C64.7063 54.5969 64.6978 55.4724 64.6978 56.3394Z" fill="#222A3F" stroke="#222A3F" stroke-width="0.3"/>
<path d="M58.7382 42.697C58.7297 43.037 58.4152 43.343 58.0667 43.343C57.7012 43.3345 57.3782 43.0115 57.3952 42.663C57.4122 42.3315 57.7522 42.017 58.0922 42.034C58.4492 42.051 58.7467 42.357 58.7382 42.697Z" fill="#222A3F" stroke="#222A3F" stroke-width="0.3"/>
<path d="M47.3413 46.5306C46.9928 46.5306 46.6953 46.2501 46.6953 45.9101C46.6953 45.5701 46.9928 45.2896 47.3413 45.2896C47.6898 45.2896 47.9533 45.5531 47.9618 45.8931C47.9703 46.2501 47.6983 46.5306 47.3413 46.5306Z" fill="#222A3F" stroke="#222A3F" stroke-width="0.3"/>
<defs>
<filter id="filter0_d_14_16447" x="0.0273438" y="0.546997" width="117.945" height="126.906" filterUnits="userSpaceOnUse" color-interpolation-filters="sRGB">
<feFlood flood-opacity="0" result="BackgroundImageFix"/>
<feColorMatrix in="SourceAlpha" type="matrix" values="0 0 0 0 0 0 0 0 0 0 0 0 0 0 0 0 0 0 127 0" result="hardAlpha"/>
<feOffset dy="6"/>
<feGaussianBlur stdDeviation="10"/>
<feColorMatrix type="matrix" values="0 0 0 0 0.237802 0 0 0 0 0.273754 0 0 0 0 0.4625 0 0 0 0.08 0"/>
<feBlend mode="normal" in2="BackgroundImageFix" result="effect1_dropShadow_14_16447"/>
<feBlend mode="normal" in="SourceGraphic" in2="effect1_dropShadow_14_16447" result="shape"/>
</filter>
</defs>
</svg>
