<svg width="1920" height="1702" viewBox="0 0 1920 1702" fill="none" xmlns="http://www.w3.org/2000/svg">
<path fill-rule="evenodd" clip-rule="evenodd" d="M-121.145 581.542C-85.8965 407.905 113.877 314.22 353.855 324.542C511.87 331.339 620.18 412.969 728.474 494.586C841.54 579.8 954.588 665 1124.17 665C1285.53 665 1380.57 521.562 1482.34 367.975C1602.88 186.05 1732.85 -10.1157 1993.67 1.00029L2105.7 938.857L1983.67 950.783V1015C1945.67 1087.5 1869.67 1184.82 1708.17 1198.5C1603.45 1207.37 1524.91 1196.65 1450.3 1186.47C1319.17 1168.59 1200.2 1152.35 972.667 1247C893.699 1279.85 839.911 1336.27 780.671 1398.42C649.564 1535.95 491.751 1701.5 -24.833 1701.5V1147.08L-83.1445 1152.78L-121.145 581.542Z" fill="url(#paint0_linear_14_13327)"/>
<defs>
<linearGradient id="paint0_linear_14_13327" x1="894.167" y1="170.165" x2="535.571" y2="1610.2" gradientUnits="userSpaceOnUse">
<stop stop-color="#2382F2"/>
<stop offset="1" stop-color="#4659FF"/>
</linearGradient>
</defs>
</svg>
