<svg width="28" height="30" viewBox="0 0 28 30" fill="none" xmlns="http://www.w3.org/2000/svg">
<path fill-rule="evenodd" clip-rule="evenodd" d="M15.556 2.61633C14.5935 2.06059 13.4075 2.06059 12.4449 2.61633L4.05391 7.46089C3.09133 8.01664 2.49835 9.0437 2.49835 10.1552V19.8443C2.49835 20.9558 3.09133 21.9829 4.05391 22.5386L12.4449 27.3832C13.4075 27.9389 14.5935 27.9389 15.556 27.3832L23.9471 22.5386C24.9096 21.9829 25.5026 20.9558 25.5026 19.8443V10.9553C25.5026 10.6117 25.7812 10.3331 26.1248 10.3331C26.4685 10.3331 26.7471 10.6117 26.7471 10.9553V19.8443C26.7471 21.4004 25.9169 22.8383 24.5693 23.6163L16.1783 28.4609C14.8306 29.2389 13.1703 29.2389 11.8227 28.4609L3.43168 23.6163C2.08407 22.8383 1.25391 21.4004 1.25391 19.8443V10.1552C1.25391 8.5991 2.08407 7.16122 3.43168 6.38317L11.8227 1.53861C13.1703 0.760567 14.8306 0.760567 16.1783 1.53861L24.2672 6.20873C24.5648 6.38056 24.6667 6.7611 24.4949 7.05871C24.3231 7.35631 23.9425 7.45828 23.6449 7.28645L15.556 2.61633Z" fill="#F9F9F9"/>
<path d="M26.4456 8.34195C26.4456 8.68559 26.167 8.96417 25.8234 8.96417C25.4798 8.96417 25.2012 8.68559 25.2012 8.34195C25.2012 7.9983 25.4798 7.71973 25.8234 7.71973C26.167 7.71973 26.4456 7.9983 26.4456 8.34195Z" fill="#F9F9F9"/>
<path fill-rule="evenodd" clip-rule="evenodd" d="M15.4327 12.3371C15.1791 12.3371 15.0682 12.3861 15.0173 12.4433C14.9854 12.4793 14.9672 12.528 14.956 12.5825C14.9443 12.639 14.9375 12.7148 14.9375 12.8173V13.5419H16.1795C16.2434 13.5419 16.3039 13.5576 16.3545 13.5858C16.4665 13.6482 16.5357 13.7661 16.5357 13.8929L16.5351 15.4097C16.5351 15.6027 16.3774 15.7605 16.1833 15.7605H14.9375V19.4248C14.9375 19.618 14.7798 19.7757 14.5856 19.7757H13.0131C12.819 19.7757 12.6613 19.618 12.6613 19.4248V15.7605H11.6194C11.4253 15.7605 11.2676 15.6027 11.2676 15.4095V13.8928C11.2676 13.6996 11.4253 13.5419 11.6194 13.5419H12.6613V12.6578C12.6613 11.9311 12.8894 11.3236 13.311 10.8919C13.7343 10.4584 14.3296 10.2246 15.0416 10.2246L16.2406 10.2266C16.4344 10.2269 16.5919 10.3847 16.5919 10.5775V11.9858C16.5919 12.179 16.4342 12.3368 16.24 12.3368L15.4327 12.3371Z" fill="#F9F9F9"/>
</svg>
