<svg width="28" height="29" viewBox="0 0 28 29" fill="none" xmlns="http://www.w3.org/2000/svg">
<path d="M13.9906 11.9443C12.8327 11.9443 11.8906 12.8864 11.8906 14.0443C11.8906 15.2023 12.8327 16.1443 13.9906 16.1443C15.1485 16.1443 16.0906 15.2023 16.0906 14.0443C16.0906 12.8864 15.1486 11.9443 13.9906 11.9443Z" fill="#F9F9F9"/>
<path d="M18.4621 9.57286C17.7343 8.84509 16.7705 8.44434 15.748 8.44434H12.2333C11.2108 8.44434 10.2468 8.84509 9.51915 9.57286C8.79138 10.3005 8.39062 11.2645 8.39062 12.287V15.8016C8.39062 16.8242 8.79138 17.7881 9.51915 18.5158C10.2468 19.2436 11.2108 19.6443 12.2333 19.6443H15.748C16.7705 19.6443 17.7344 19.2436 18.4621 18.5158C19.1898 17.7881 19.5906 16.8242 19.5906 15.8016V12.287C19.5906 11.2645 19.1898 10.3005 18.4621 9.57286ZM13.9906 17.0084C12.3562 17.0084 11.0266 15.6787 11.0266 14.0443C11.0266 12.4099 12.3562 11.0803 13.9906 11.0803C15.625 11.0803 16.9547 12.4099 16.9547 14.0443C16.9547 15.6787 15.625 17.0084 13.9906 17.0084ZM17.2743 11.2248C17.2133 11.2858 17.1286 11.3208 17.0423 11.3208C16.9559 11.3208 16.8714 11.2858 16.8104 11.2248C16.7491 11.1637 16.7141 11.0791 16.7141 10.9927C16.7141 10.9063 16.7491 10.8216 16.8104 10.7606C16.8714 10.6995 16.9558 10.6646 17.0423 10.6646C17.1286 10.6646 17.2133 10.6995 17.2743 10.7606C17.3354 10.8216 17.3704 10.9063 17.3704 10.9927C17.3704 11.079 17.3354 11.1637 17.2743 11.2248Z" fill="#F9F9F9"/>
<path fill-rule="evenodd" clip-rule="evenodd" d="M15.5463 1.66125C14.5837 1.10551 13.3977 1.10551 12.4352 1.66125L4.04414 6.50581C3.08156 7.06156 2.48859 8.08862 2.48859 9.20012V18.8892C2.48859 20.0007 3.08156 21.0278 4.04414 21.5835L12.4352 26.4281C13.3977 26.9838 14.5837 26.9838 15.5463 26.4281L23.9373 21.5835C24.8999 21.0278 25.4929 20.0007 25.4929 18.8892V10.0002C25.4929 9.65658 25.7714 9.37801 26.1151 9.37801C26.4587 9.37801 26.7373 9.65658 26.7373 10.0002V18.8892C26.7373 20.4453 25.9071 21.8832 24.5595 22.6613L16.1685 27.5058C14.8209 28.2839 13.1606 28.2839 11.8129 27.5058L3.42192 22.6613C2.07431 21.8832 1.24414 20.4453 1.24414 18.8892V9.20012C1.24414 7.64403 2.0743 6.20614 3.42192 5.42809L11.8129 0.583534C13.1606 -0.194511 14.8209 -0.194512 16.1685 0.583534L24.2574 5.25366C24.555 5.42548 24.657 5.80602 24.4851 6.10363C24.3133 6.40123 23.9328 6.5032 23.6352 6.33138L15.5463 1.66125Z" fill="#F9F9F9"/>
<path d="M26.4359 7.38687C26.4359 7.73051 26.1573 8.00909 25.8136 8.00909C25.47 8.00909 25.1914 7.73051 25.1914 7.38687C25.1914 7.04323 25.47 6.76465 25.8136 6.76465C26.1573 6.76465 26.4359 7.04323 26.4359 7.38687Z" fill="#F9F9F9"/>
</svg>
