<svg width="28" height="30" viewBox="0 0 28 30" fill="none" xmlns="http://www.w3.org/2000/svg">
<path fill-rule="evenodd" clip-rule="evenodd" d="M15.556 2.61633C14.5935 2.06059 13.4075 2.06059 12.4449 2.61633L4.05391 7.46089C3.09133 8.01664 2.49835 9.0437 2.49835 10.1552V19.8443C2.49835 20.9558 3.09133 21.9829 4.05391 22.5386L12.4449 27.3832C13.4075 27.9389 14.5935 27.9389 15.556 27.3832L23.9471 22.5386C24.9096 21.9829 25.5026 20.9558 25.5026 19.8443V10.9553C25.5026 10.6117 25.7812 10.3331 26.1248 10.3331C26.4685 10.3331 26.7471 10.6117 26.7471 10.9553V19.8443C26.7471 21.4004 25.9169 22.8383 24.5693 23.6163L16.1783 28.4609C14.8306 29.2389 13.1703 29.2389 11.8227 28.4609L3.43168 23.6163C2.08407 22.8383 1.25391 21.4004 1.25391 19.8443V10.1552C1.25391 8.5991 2.08407 7.16122 3.43168 6.38317L11.8227 1.53861C13.1703 0.760567 14.8306 0.760567 16.1783 1.53861L24.2672 6.20873C24.5648 6.38056 24.6667 6.7611 24.4949 7.05871C24.3231 7.35631 23.9425 7.45828 23.6449 7.28645L15.556 2.61633Z" fill="#F9F9F9"/>
<path d="M26.4456 8.34195C26.4456 8.68559 26.167 8.96417 25.8234 8.96417C25.4798 8.96417 25.2012 8.68559 25.2012 8.34195C25.2012 7.99831 25.4798 7.71973 25.8234 7.71973C26.167 7.71973 26.4456 7.99831 26.4456 8.34195Z" fill="#F9F9F9"/>
<path d="M19.657 12.0481C19.5209 11.542 19.1219 11.1431 18.6159 11.0068C17.6915 10.7539 13.994 10.7539 13.994 10.7539C13.994 10.7539 10.2966 10.7539 9.37224 10.9972C8.87599 11.1334 8.46727 11.5421 8.33115 12.0481C8.08789 12.9724 8.08789 14.8892 8.08789 14.8892C8.08789 14.8892 8.08789 16.8157 8.33115 17.7304C8.46741 18.2364 8.86626 18.6353 9.37231 18.7715C10.3063 19.0245 13.9941 19.0245 13.9941 19.0245C13.9941 19.0245 17.6915 19.0245 18.6159 18.7812C19.122 18.645 19.5209 18.2461 19.6571 17.7401C19.9003 16.8157 19.9003 14.899 19.9003 14.899C19.9003 14.899 19.9101 12.9724 19.657 12.0481ZM12.8168 16.6601V13.1184L15.8915 14.8892L12.8168 16.6601Z" fill="#F9F9F9"/>
</svg>
