<svg width="160" height="160" viewBox="0 0 160 160" fill="none" xmlns="http://www.w3.org/2000/svg">
<path d="M75 2.88675C78.094 1.10042 81.906 1.10042 85 2.88675L144.282 37.1132C147.376 38.8996 149.282 42.2008 149.282 45.7735V114.226C149.282 117.799 147.376 121.1 144.282 122.887L85 157.113C81.906 158.9 78.094 158.9 75 157.113L15.718 122.887C12.6239 121.1 10.718 117.799 10.718 114.226V45.7735C10.718 42.2008 12.624 38.8996 15.718 37.1132L75 2.88675Z" fill="#F1F6FE"/>
<path d="M74.5 98C74.9 96.4 74.6667 95 74.5 94.5L74 94L69 99V94.5L63 96.5L65 90.5H61L65 86.5L64.5 85C63.5 85 60.9 85.3 58.5 86.5C56.1 87.7 52.5 91.6667 51 93.5H58.5C58.9 93.5 56.3333 101.167 55 105L66.5 101.5L66 108.5C67.1667 107.5 69.8 105.3 71 104.5C72.5 103.5 74 100 74.5 98Z" fill="#5FA9FF"/>
<path fill-rule="evenodd" clip-rule="evenodd" d="M86.5 56L104 73.5C103.167 75.5 101.1 79.8 99.5 81C97.9 82.2 86.5 93.5 81 99L77 96.5L60.5 79L66 73.5L80.5 59.5C82.1667 58.3333 85.7 56 86.5 56ZM85 84C89.9706 84 94 79.9706 94 75C94 70.0294 89.9706 66 85 66C80.0294 66 76 70.0294 76 75C76 79.9706 80.0294 84 85 84Z" fill="white"/>
<path d="M107.887 52.1662C106.216 50.4941 103.92 49.762 101.59 50.1572L98.9504 50.6048C98.9397 50.6062 98.9289 50.6079 98.9183 50.6096C90.4562 52.0454 82.767 55.982 76.6589 61.9981L60.5057 63.4731C58.9725 63.613 57.5286 64.2897 56.4398 65.3783C53.8673 67.9509 53.8673 72.1368 56.4398 74.7094L60.3005 78.57C60.1363 78.9166 60.0467 79.2968 60.0467 79.6916C60.0467 80.3925 60.3196 81.0516 60.8152 81.5471L63.7559 84.4877C62.4521 84.4792 61.1509 84.6853 59.9043 85.1071C59.4433 85.2632 59.196 85.7634 59.3519 86.2245C59.4764 86.592 59.8193 86.8236 60.1868 86.8236C60.2805 86.8236 60.3758 86.8086 60.4695 86.7768C61.7709 86.3365 63.1423 86.1716 64.5024 86.2836C63.956 86.5862 63.4504 86.9668 62.9977 87.4195L60.2605 90.1555C60.0043 90.4115 59.9309 90.798 60.0752 91.1301C60.2195 91.4622 60.5564 91.6725 60.9139 91.6598L63.9363 91.5558L62.2667 96.5653C62.1612 96.882 62.2437 97.2312 62.4797 97.4673C62.7158 97.7033 63.0652 97.7859 63.3817 97.6802L68.3912 96.0107L68.2872 99.033C68.2747 99.3949 68.4849 99.7276 68.8169 99.8718C68.93 99.9209 69.0494 99.9448 69.1678 99.9448C69.3971 99.9448 69.6226 99.8554 69.7915 99.6865L72.5269 96.9498C72.9797 96.4976 73.3605 95.9923 73.6634 95.4457C73.6856 95.7183 73.6973 95.9922 73.6973 96.2663C73.6973 98.9434 72.6555 101.46 70.7637 103.351L67.2529 106.861L67.4516 101.114C67.4616 100.826 67.3297 100.55 67.0984 100.378C66.867 100.205 66.5663 100.156 66.292 100.247L56.4037 103.543L59.6998 93.6551C59.791 93.3813 59.7425 93.0799 59.5697 92.8487C59.3967 92.6174 59.1212 92.4857 58.8331 92.4954L53.0859 92.6942L56.5971 89.1823C56.9279 88.8514 57.2815 88.5438 57.6482 88.2681C58.0373 87.9755 58.1155 87.423 57.8229 87.0339C57.5305 86.6447 56.9778 86.5666 56.5886 86.8592C56.1561 87.1844 55.7395 87.5467 55.3504 87.9359L50.2582 93.0293C50.0021 93.2852 49.9287 93.6718 50.0732 94.0039C50.2175 94.3359 50.5479 94.5451 50.9121 94.5335L57.6264 94.3011L54.1739 104.658C54.0684 104.975 54.1507 105.324 54.3868 105.56C54.6229 105.796 54.972 105.879 55.2889 105.773L65.6461 102.321L65.4139 109.035C65.4014 109.397 65.6113 109.729 65.9433 109.874C66.0566 109.923 66.176 109.947 66.2945 109.947C66.5236 109.947 66.7492 109.857 66.9179 109.689L72.0103 104.598C74.235 102.373 75.4602 99.4139 75.4602 96.2661C75.4602 96.2409 75.4592 96.2158 75.4591 96.1906L78.5048 99.2364C79.0005 99.732 79.6594 100.005 80.3604 100.005C80.7553 100.005 81.1356 99.9154 81.482 99.7511L85.3429 103.612C86.5891 104.858 88.2461 105.545 90.0084 105.545C91.7708 105.545 93.4277 104.858 94.6738 103.612C95.7626 102.523 96.4391 101.079 96.5791 99.5464L98.0541 83.3927C100.993 80.409 103.46 77.01 105.386 73.2821C105.772 72.5327 106.136 71.7714 106.477 71C107.186 69.3921 107.272 68.8362 106.6 68.5C105.928 68.1638 105.444 68.9412 105 69.9701C104.683 70.7042 104.344 71.4292 103.984 72.1433L87.9003 56.06C91.4236 54.2816 95.2151 53.0289 99.1851 52.3525C99.1956 52.3511 99.2062 52.3495 99.2167 52.3477L101.884 51.8952C103.645 51.5966 105.378 52.1499 106.641 53.4125C107.903 54.6751 108.456 56.4085 108.157 58.1689L107.705 60.8387C107.673 61.0206 107.641 61.2012 107.608 61.382C107.519 61.8606 107.836 62.3204 108.314 62.4089C108.793 62.4973 109.253 62.1809 109.341 61.7022C109.376 61.5139 109.41 61.3257 109.442 61.1346L109.895 58.4636C110.29 56.1332 109.559 53.8378 107.887 52.1662ZM57.6864 66.6248C58.4842 65.827 59.5422 65.3312 60.6658 65.2286L74.7059 63.9467L61.4376 77.2139L57.6865 73.4628C55.8011 71.5775 55.8011 68.5101 57.6864 66.6248ZM71.2805 95.7032L70.1257 96.8585L70.1965 94.8041C70.2065 94.5156 70.0745 94.2406 69.8432 94.0677C69.612 93.895 69.311 93.8462 69.037 93.9376L64.4964 95.4508L66.0096 90.9104C66.1008 90.6365 66.0523 90.3353 65.8795 90.104C65.7066 89.8727 65.4267 89.7412 65.1431 89.7508L63.0887 89.8215L64.2441 88.6665C64.9042 88.0064 65.7159 87.5543 66.6111 87.3432L72.605 93.3371C72.3928 94.2327 71.9405 95.0441 71.2805 95.7032ZM93.4273 102.366C92.514 103.279 91.2998 103.782 90.0083 103.782C88.7168 103.782 87.5026 103.279 86.5893 102.366L82.8379 98.6144L96.1055 85.3459L94.8236 99.3863C94.721 100.51 94.225 101.568 93.4273 102.366ZM103.118 73.7706C101.339 76.9242 99.1452 79.814 96.5819 82.3761L80.969 97.9902C80.6333 98.3259 80.0869 98.3259 79.7512 97.9902L62.0617 80.3006C61.7259 79.9649 61.7259 79.4185 62.0615 79.0826L77.6745 63.4709C80.2617 60.8838 83.1513 58.6911 86.2745 56.9272L103.118 73.7706Z" fill="#222A3F" stroke="#222A3F" stroke-width="0.6"/>
<path d="M78.7375 81.3163C80.5028 83.0816 82.8498 84.0538 85.3463 84.0538C87.8427 84.0538 90.1899 83.0816 91.9552 81.3163C93.7205 79.551 94.6927 77.204 94.6927 74.7074C94.6927 72.2109 93.7205 69.8638 91.9552 68.0985C90.1899 66.3332 87.8427 65.3611 85.3463 65.3611C82.8498 65.3611 80.5026 66.3332 78.7375 68.0985C76.9721 69.8638 76 72.2109 76 74.7074C76 77.204 76.9721 79.5511 78.7375 81.3163V81.3163ZM79.984 69.3451C81.4164 67.9127 83.3207 67.1239 85.3463 67.1239C87.3719 67.1239 89.2763 67.9127 90.7087 69.3451C92.141 70.7775 92.9298 72.6818 92.9298 74.7074C92.9298 76.733 92.141 78.6375 90.7087 80.0697C89.2763 81.5021 87.3719 82.2909 85.3463 82.2909C83.3207 82.2909 81.4164 81.5021 79.984 80.0697C78.5516 78.6374 77.7628 76.733 77.7628 74.7074C77.7628 72.6818 78.5516 70.7775 79.984 69.3451V69.3451Z" fill="#222A3F" stroke="#222A3F" stroke-width="0.6"/>
<path d="M82.5045 79.1513C83.226 79.6231 83.7568 79.8127 84.4072 79.8808V80.3054C84.4072 80.7921 84.8017 81.1868 85.2886 81.1868C85.7755 81.1868 86.17 80.7921 86.17 80.3054V79.795C87.4972 79.4304 88.3475 78.2852 88.5375 77.1551C88.7863 75.6746 87.983 74.337 86.5386 73.8263C85.7253 73.5389 84.8259 73.1916 84.3206 72.7952C84.1552 72.6655 84.086 72.3818 84.1443 72.0724C84.203 71.7605 84.4127 71.3832 84.8246 71.2589C85.7849 70.9696 86.418 71.4647 86.4871 71.5222C86.8615 71.8334 87.4172 71.7824 87.7284 71.4082C88.0396 71.0339 87.9886 70.4781 87.6143 70.1669C87.4726 70.0492 86.9553 69.6576 86.17 69.4864V69.1097C86.17 68.6229 85.7755 68.2283 85.2886 68.2283C84.8017 68.2283 84.4072 68.6229 84.4072 69.1097V69.5458C84.3769 69.5542 84.3468 69.5619 84.3162 69.5712C83.339 69.8656 82.6093 70.6989 82.412 71.7461C82.2304 72.7094 82.5449 73.643 83.2325 74.1824C83.8017 74.6288 84.5892 75.0072 85.9511 75.4886C86.8703 75.8135 86.8502 76.5579 86.7991 76.8629C86.6953 77.4795 86.1767 78.1459 85.2828 78.1519C84.4131 78.1574 84.1397 78.1145 83.4695 77.6761C83.0619 77.4096 82.5158 77.524 82.2494 77.9313C81.9829 78.3386 82.097 78.8849 82.5045 79.1513V79.1513Z" fill="#222A3F" stroke="#222A3F" stroke-width="0.6"/>
<circle cx="107.451" cy="65.65" r="1.15" fill="#222A3F"/>
</svg>
