<svg width="160" height="160" viewBox="0 0 160 160" fill="none" xmlns="http://www.w3.org/2000/svg">
<path d="M75 2.88675C78.094 1.10042 81.906 1.10042 85 2.88675L144.282 37.1132C147.376 38.8996 149.282 42.2008 149.282 45.7735V114.226C149.282 117.799 147.376 121.1 144.282 122.887L85 157.113C81.906 158.9 78.094 158.9 75 157.113L15.718 122.887C12.6239 121.1 10.718 117.799 10.718 114.226V45.7735C10.718 42.2008 12.624 38.8996 15.718 37.1132L75 2.88675Z" fill="#F1F6FE"/>
<path d="M66.5 59L67 57L67.5 56.5L70.5 54.5L72 53.5L71.5 51L69 50.5V49L67 47.5L65 48.5L63 52.5H61.5L60 53.6833V55.5L59 56L55.5 58V60L58 61.5L59 63.5L60 64L62 63.5L64 60L66.5 59Z" fill="#B28CFF"/>
<path d="M86.9982 97.5C85.6649 96.5 82.9982 94.3 82.9982 93.5L81.998 90.5L80.9982 88L78.498 88.5L77.998 89.5V92L76.498 93C75.6648 93 73.8982 93.1 73.498 93.5C72.9979 94 70.998 92.5 70.498 92C70.098 91.6 69.998 89.5 69.998 88.5C69.8314 88.3333 69.198 87.9 67.998 87.5C66.498 87 64.498 84 62.998 82.5C61.498 81 61.9982 79 60.998 78C59.9979 77 57.9982 78 56.9982 77C55.9982 76 55.4982 74 56.4982 72.5C57.2982 71.3 60.4982 71.3333 61.9982 71.5V68.5L62.4982 67.5H66.9982C68.4982 67.5 69.9982 66.5 71.9982 65.5C73.5982 64.7 73.9982 62.8333 73.9982 62C74.3315 62.8333 75.1982 64.7 75.9982 65.5C76.9982 66.5 79.4982 67.5 80.9982 67.5H85.4982C85.8982 67.5 86.3315 67.8333 86.4982 68L85.9982 68.5C85.6649 69 84.9982 70.1 84.9982 70.5C84.9982 70.9 85.3315 72.3333 85.4982 73L86.9982 75.5L90.4982 76H94.4982C95.6982 76 96.9982 75 97.4982 74.5C98.3315 75 100.198 76.2 100.998 77C101.798 77.8 103.332 80.6667 103.998 82C104.498 82 105.798 82.1 106.998 82.5C108.498 83 107.998 83.5 108.498 85C108.998 86.5 107.998 86.5 106.998 87.5C106.198 88.3 104.998 88.5 104.498 88.5C104.165 89.6667 103.398 92.3 102.998 93.5C102.598 94.7 100.165 97 98.9982 98L97.998 99L99.998 102.5V106H85.9982V102L88.498 99L86.9982 97.5Z" fill="white"/>
<path d="M83.5 105.5V95C83.1667 94.1667 82.4 92.4 82 92C81.5 91.5 82 89 81.5 88C81.1 87.2 79 88 78 88.5V91.5C78 92.5 78 92 77.5 92.5C77.1 92.9 75.3333 93 74.5 93C73.6667 93 71.8 92.9 71 92.5C70.2 92.1 70 90 70 89C69.5 88.3334 68.3 87.2 67.5 88C66.7 88.8 65.8333 91 65.5 92V105.5H83.5Z" fill="#C4B3E8"/>
<path d="M58.5 85H64.5L63 82C62.6 81.2 62.1667 79.6667 62 79V67H64.5H70C71 67 73 65 73.5 64.5C74 64 74.5 62 74.5 62.5C74.5 63 75.5 64.5 77 66C78.5 67.5 80.5 67.5 82 67.5H86.5C86 68.3333 85 70.2 85 71C85 72 86 74 87 75C88 76 90.5 76 92.5 76C94.5 76 94.5 76 96 75C97.5 74 97 72.5 96.5 71.5C96.1 70.7 94.3333 70.8333 93.5 71C93.3333 70.6667 92.8 69.8 92 69C91.2 68.2 90 68.3333 89.5 68.5V64.5C89.5 63 88.5 60.5 87 58C85.5 55.5 84 54.5 82 53C80.4 51.8 77 51.1667 75.5 51H71.5V53.5C71.5 54.3 70.5 54.8333 70 55L67 56.5C67 57 66.8 58.2 66 59C65.2 59.8 64 60 63.5 60C63 61.1667 61.8 63.6 61 64C60.2 64.4 59 64.1667 58.5 64V71H61.5V78H58.5V85Z" fill="#D7E0EF"/>
<path d="M98.5001 99.005C98.8151 99.38 99.1301 99.725 99.4151 100.1C100.27 101.225 100.69 102.515 100.75 103.91C100.78 104.615 100.765 105.305 100.765 106.01C100.765 106.64 100.405 106.985 99.7751 106.985C98.9201 106.985 98.0651 106.985 97.2101 106.985C96.6251 106.985 96.2201 106.61 96.2201 106.085C96.2351 105.575 96.5951 105.26 97.2101 105.26C97.7201 105.26 98.2451 105.275 98.7551 105.245C98.8751 105.245 99.0701 105.08 99.0851 104.99C99.2051 102.95 98.6201 101.225 96.9401 99.95C96.7151 99.785 96.5051 99.74 96.2351 99.815C94.0301 100.46 91.8251 100.445 89.6051 99.83C89.4251 99.785 89.1551 99.845 88.9901 99.95C87.5801 100.985 86.8451 102.395 86.8151 104.15C86.8151 104.51 86.8151 104.855 86.8151 105.26C87.0251 105.26 87.1901 105.26 87.3551 105.26C89.3651 105.26 91.3901 105.26 93.4001 105.26C94.1801 105.26 94.6301 105.905 94.2551 106.505C94.1051 106.745 93.7301 106.97 93.4601 106.97C90.9851 107 88.5251 107 86.0501 106.985C85.5401 106.985 85.1351 106.655 85.1201 106.16C85.0751 104.495 84.9551 102.8 85.7801 101.255C86.1551 100.55 86.6951 99.92 87.1601 99.26C87.2201 99.17 87.3101 99.095 87.3701 99.035C86.3651 98.315 85.3751 97.61 84.3401 96.875C84.3251 97.04 84.2951 97.205 84.2951 97.385C84.2951 100.115 84.2801 102.845 84.3101 105.575C84.3251 106.595 84.0851 107.015 82.9001 107.015C77.0801 106.985 71.2751 107 65.4551 107C64.6151 107 64.3001 106.7 64.3001 105.875C64.3001 101.735 64.3001 97.595 64.3001 93.455C64.3001 91.565 64.8551 89.855 66.0101 88.355C66.2051 88.1 66.4301 87.86 66.7601 87.47C66.6551 87.425 66.5351 87.395 66.4451 87.335C66.1301 87.095 65.7701 86.885 65.5151 86.57C65.0351 85.955 64.4201 85.88 63.7001 85.895C62.1101 85.94 60.5351 85.91 58.9451 85.91C58.2251 85.91 57.9401 85.61 57.9251 84.89C57.9251 82.985 57.9101 81.095 57.9251 79.19C57.9251 78.815 57.8351 78.62 57.4751 78.44C55.9601 77.66 55.1501 76.385 55.1651 74.69C55.1801 72.935 56.0351 71.66 57.6251 70.895C57.8651 70.775 57.9251 70.64 57.9251 70.4C57.9251 68.99 57.9101 67.565 57.9401 66.155C57.9551 65.465 58.0451 64.79 58.0901 64.1C58.1051 63.965 58.0601 63.83 58.0151 63.695C57.8651 63.275 57.7001 62.84 57.5051 62.435C57.4451 62.3 57.2801 62.135 57.1301 62.105C55.7801 61.835 54.7901 60.815 54.6251 59.465C54.4751 58.19 55.1951 56.93 56.4101 56.39C57.2951 56 58.1951 55.625 59.0951 55.265C59.3201 55.175 59.4251 55.055 59.3951 54.785C59.1701 53.15 60.5651 51.635 62.2751 51.8C62.5901 51.83 62.7551 51.74 62.8751 51.425C63.2201 50.525 63.6101 49.625 64.0001 48.74C64.5701 47.45 66.0401 46.895 67.0001 47.015C68.4101 47.21 69.1701 48.52 69.5 49C69.8299 49.48 69.9202 49.76 70.2101 50C70.5 50.24 71.7023 50.196 72.6851 50.105C74.0951 49.985 75.5051 49.985 76.9151 50.24C77.4851 50.345 77.7251 50.69 77.6651 51.2C77.6051 51.665 77.2601 51.905 76.7051 51.89C75.4601 51.845 74.2301 51.815 72.9851 51.77C72.8651 51.77 72.7301 51.785 72.5951 51.8C72.5501 51.8 72.5201 51.845 72.5351 51.83C72.5351 52.325 72.5801 52.805 72.5201 53.255C72.3851 54.425 71.7251 55.205 70.6601 55.67C69.8351 56.015 69.0101 56.36 68.1701 56.69C67.9001 56.795 67.7801 56.93 67.7951 57.26C67.8701 59.105 66.6251 60.32 64.7951 60.2C64.4951 60.185 64.3901 60.32 64.3001 60.545C63.9551 61.37 63.6101 62.21 63.2801 63.035C62.7251 64.4 61.4501 65.15 59.9951 64.94C59.7251 64.895 59.6201 64.97 59.6201 65.24C59.6051 66.89 59.5451 68.555 59.6051 70.205C59.6351 70.835 60.2651 70.4 60.6101 70.505C60.8351 70.565 61.0601 70.535 61.0601 70.175C61.0451 69.32 61.0601 68.465 61.0601 67.61C61.0601 66.785 61.3601 66.485 62.2001 66.47C64.3601 66.455 66.5201 66.485 68.6651 66.425C70.6151 66.365 72.7301 64.7 73.3301 62.855C73.3901 62.675 73.4201 62.465 73.4201 62.27C73.4351 61.16 73.4201 60.035 73.4351 58.925C73.4351 58.535 73.6151 58.25 73.9751 58.13C74.3351 58.01 74.7101 58.07 74.9351 58.415C75.0401 58.58 75.0851 58.82 75.1001 59.015C75.1151 59.885 75.1601 60.755 75.1001 61.625C75.0101 62.78 75.4901 63.68 76.1951 64.49C77.3651 65.84 78.8651 66.47 80.6651 66.47C82.5401 66.455 84.4001 66.47 86.2751 66.47C87.1301 66.47 87.3251 66.635 87.5201 67.49C87.5351 67.565 87.6101 67.67 87.6851 67.7C88.0901 67.865 88.4951 68.03 88.9151 68.195C88.9151 68.195 88.9451 68.18 88.9451 68.165C89.1251 65.33 88.7951 62.585 87.5201 60.005C85.9151 56.735 83.4251 54.38 80.0951 52.925C79.7051 52.745 79.3901 52.52 79.3901 52.055C79.3901 51.455 79.9901 51.065 80.5751 51.305C82.1501 51.935 83.5751 52.82 84.8651 53.915C87.7001 56.33 89.5301 59.36 90.2951 63.005C90.5801 64.37 90.5651 65.78 90.6851 67.175C90.7001 67.325 90.6851 67.475 90.6851 67.67C91.5401 67.61 92.2901 67.775 92.9501 68.285C93.4451 68.675 93.8201 69.17 93.9551 69.785C94.0301 70.1 94.1651 70.205 94.4801 70.19C96.3101 70.175 97.5101 71.54 97.7801 72.725C97.7951 72.8 97.8251 72.86 97.8251 72.935C97.7351 73.73 98.2151 74.03 98.8451 74.36C101.53 75.815 103.405 78.005 104.47 80.885C104.605 81.23 104.74 81.395 105.13 81.365C106.24 81.275 107.26 81.5 108.115 82.25C109.135 83.165 109.6 84.305 109.39 85.655C109.15 87.185 108.25 88.205 106.765 88.685C106.45 88.79 106.09 88.82 105.76 88.835C105.19 88.865 105.175 88.85 105.115 89.48C104.98 90.935 104.545 92.3 103.87 93.59C102.715 95.84 101.005 97.595 98.7701 98.81C98.7101 98.84 98.6501 98.885 98.5901 98.915C98.5601 98.915 98.5451 98.945 98.5001 99.005ZM103.6 86.615C103.51 85.37 103.525 84.17 103.3 83.03C102.61 79.67 100.675 77.21 97.6451 75.62C97.4201 75.5 97.2851 75.515 97.1051 75.725C96.4001 76.58 95.4851 77 94.3751 77C93.1751 77 91.9751 76.985 90.7751 77C89.6351 77.015 88.5701 76.775 87.5651 76.25C87.4601 76.19 87.2501 76.19 87.1451 76.265C84.5051 78.035 82.8851 80.495 82.4801 83.645C82.3001 85.07 82.3901 86.525 82.3601 87.965C82.3301 89.495 82.6751 90.965 83.2901 92.36C85.4351 97.235 91.1501 99.785 96.1751 98.075C99.9851 96.77 102.37 94.115 103.255 90.185C103.525 89.015 103.495 87.77 103.6 86.615ZM77.5301 87.785C77.3951 87.605 77.3351 87.53 77.2751 87.455C75.8351 85.64 76.3151 83.045 78.2951 81.86C79.0751 81.395 79.9301 81.32 80.8151 81.365C81.1151 81.38 81.2651 81.29 81.3701 80.99C82.1051 78.965 83.2751 77.24 84.9101 75.83C85.2251 75.56 85.5401 75.305 85.8701 75.05C85.8251 74.96 85.7951 74.9 85.7501 74.84C85.0001 74 84.5201 73.025 84.2951 71.93C84.0251 70.655 84.0701 69.455 85.0901 68.48C85.1501 68.435 85.1651 68.345 85.2401 68.21C85.0151 68.21 84.8651 68.21 84.7151 68.21C83.3051 68.21 81.8801 68.225 80.4701 68.21C77.9801 68.18 75.9851 67.145 74.5001 65.15C74.4401 65.06 74.3501 64.985 74.2601 64.88C74.1701 65 74.0951 65.09 74.0201 65.165C72.5051 67.145 70.5101 68.195 67.9901 68.195C66.4151 68.195 64.8401 68.21 63.2801 68.18C62.8751 68.18 62.7551 68.285 62.7551 68.705C62.7701 71.345 62.7701 73.985 62.7551 76.625C62.7551 77.93 62.9351 79.22 63.3701 80.45C65.2151 85.715 70.3901 88.925 76.0151 88.115C76.4951 88.04 76.9751 87.905 77.5301 87.785ZM74.2901 105.26C76.9001 105.26 79.5251 105.26 82.1351 105.26C82.4651 105.26 82.6151 105.2 82.6151 104.825C82.6001 101.525 82.6151 98.225 82.6001 94.925C82.6001 94.73 82.5551 94.52 82.4501 94.37C81.4901 92.765 80.9051 91.04 80.7251 89.18C80.7101 89.06 80.6051 88.88 80.5301 88.865C80.1851 88.835 79.8401 88.82 79.5101 88.865C79.2251 88.895 79.1051 89.09 79.1051 89.42C79.1201 90.02 79.1351 90.62 79.0901 91.22C79.0001 92.615 77.7551 93.92 76.3751 93.98C75.0251 94.04 73.6601 94.04 72.3101 93.995C71.1101 93.95 70.2851 93.26 69.7451 92.195C69.3851 91.505 69.4151 90.74 69.4751 90.02C69.5201 89.315 69.3551 88.88 68.6351 88.655C68.3051 88.55 68.1101 88.535 67.8551 88.79C66.6101 90.095 65.9801 91.64 65.9651 93.425C65.9501 97.205 65.9651 101 65.9501 104.78C65.9501 105.17 66.0551 105.29 66.4601 105.29C69.0551 105.26 71.6651 105.26 74.2901 105.26ZM92.2601 75.365C92.2601 75.335 92.2601 75.305 92.2601 75.275C93.0401 75.275 93.8351 75.305 94.6151 75.26C95.4551 75.215 96.1301 74.495 96.1901 73.655C96.2501 72.875 95.6801 72.08 94.8851 71.93C94.3751 71.84 93.8351 71.855 93.3101 71.84C92.7101 71.825 92.4101 71.54 92.3651 70.97C92.3501 70.835 92.3651 70.685 92.3501 70.535C92.3051 69.845 91.8401 69.38 91.1801 69.365C90.5051 69.35 90.0401 69.785 89.9651 70.49C89.9051 71.06 89.6051 71.375 89.1101 71.375C88.6151 71.375 88.3151 71.09 88.2401 70.52C88.1351 69.755 87.6701 69.335 86.9651 69.38C86.3351 69.41 85.8701 69.95 85.8551 70.67C85.8401 72.725 87.2801 74.645 89.3201 75.125C90.2801 75.32 91.2851 75.29 92.2601 75.365ZM60.3401 63.29C61.0901 63.32 61.4951 62.96 61.7351 62.375C62.1251 61.46 62.5001 60.545 62.8601 59.615C62.9201 59.48 62.8601 59.21 62.7551 59.105C62.0051 58.325 61.2401 57.56 60.4601 56.81C60.3701 56.72 60.1601 56.675 60.0551 56.705C59.0201 57.11 58.0001 57.53 56.9801 57.995C56.3801 58.265 56.1401 59.015 56.3651 59.6C56.6201 60.26 57.2951 60.605 57.9551 60.41C58.3451 60.305 58.7201 60.23 59.0351 60.56C59.3351 60.86 59.2901 61.22 59.1851 61.595C58.9301 62.465 59.5451 63.29 60.3401 63.29ZM66.7001 48.725C66.2051 48.725 65.7101 49.025 65.5151 49.49C65.0951 50.465 64.6901 51.455 64.2851 52.445C64.2401 52.565 64.2551 52.775 64.3451 52.85C65.1251 53.645 65.9051 54.425 66.7001 55.205C66.7901 55.28 66.9701 55.355 67.0601 55.325C68.1101 54.905 69.1751 54.485 70.2101 54.005C70.7801 53.735 70.9901 53.09 70.8101 52.505C70.5701 51.755 69.9101 51.41 69.1301 51.62C68.4551 51.8 67.9151 51.515 67.8851 50.93C67.8701 50.735 67.9451 50.54 67.9901 50.345C68.2001 49.52 67.5551 48.725 66.7001 48.725ZM61.0601 74.72C61.0601 73.985 61.0601 73.265 61.0601 72.53C61.0601 72.275 60.9701 72.17 60.7151 72.185C60.2351 72.2 59.7401 72.17 59.2601 72.2C58.0301 72.245 57.0401 73.115 56.8301 74.33C56.6351 75.44 57.2951 76.64 58.4351 76.985C59.1401 77.195 59.9201 77.135 60.6701 77.195C60.9701 77.225 61.0751 77.105 61.0601 76.805C61.0451 76.13 61.0601 75.425 61.0601 74.72ZM71.1101 89.615C71.1101 90.05 71.0951 90.44 71.1101 90.83C71.1401 91.73 71.7551 92.315 72.6401 92.33C73.7051 92.345 74.7851 92.345 75.8501 92.33C76.7351 92.315 77.3501 91.73 77.4101 90.845C77.4251 90.56 77.3951 90.275 77.4251 89.99C77.4551 89.615 77.2751 89.555 76.9601 89.63C75.7601 89.915 74.5301 89.96 73.3001 89.87C72.6101 89.81 71.9051 89.705 71.1101 89.615ZM63.3401 84.2C63.2051 83.96 63.1151 83.81 63.0251 83.66C62.3201 82.52 61.7951 81.29 61.4801 79.985C61.2101 78.875 61.2101 78.89 60.0251 78.89C59.7251 78.89 59.5901 78.965 59.5901 79.295C59.6051 80.825 59.6051 82.34 59.5901 83.87C59.5901 84.17 59.6801 84.275 59.9801 84.26C60.9701 84.245 61.9451 84.26 62.9351 84.245C63.0401 84.245 63.1451 84.215 63.3401 84.2ZM62.2301 53.45C61.6451 53.495 61.3151 53.705 61.1201 54.11C60.9101 54.575 61.0451 54.98 61.3901 55.325C62.3501 56.3 63.3251 57.275 64.2851 58.235C64.7501 58.7 65.3801 58.7 65.8151 58.28C66.2351 57.86 66.2351 57.2 65.7851 56.75C64.8251 55.775 63.8651 54.8 62.8751 53.855C62.6801 53.63 62.3801 53.54 62.2301 53.45ZM80.7251 83.06C80.4851 83.06 80.2001 83.03 79.9301 83.06C78.8051 83.18 78.0101 84.185 78.1451 85.325C78.2651 86.405 79.3001 87.26 80.3501 87.155C80.4551 87.14 80.6201 86.99 80.6201 86.885C80.6801 85.625 80.6951 84.365 80.7251 83.06ZM105.13 83.06C105.16 84.38 105.175 85.655 105.22 86.93C105.22 87.02 105.43 87.155 105.535 87.155C106.39 87.155 107.065 86.825 107.47 86.06C107.89 85.28 107.815 84.515 107.275 83.81C106.72 83.105 105.955 82.955 105.13 83.06Z" fill="#222A3F" stroke="#222A3F" stroke-width="0.4"/>
<path d="M92.9934 90.635C91.1484 90.62 89.6184 90.005 88.3284 88.79C87.9084 88.4 87.8784 87.92 88.2084 87.545C88.5384 87.185 89.0634 87.17 89.4684 87.56C90.4584 88.475 91.6134 88.97 92.9484 88.97C94.2384 88.97 95.3784 88.52 96.3084 87.62C96.5934 87.35 96.9534 87.155 97.3134 87.35C97.5384 87.47 97.7784 87.755 97.8234 88.01C97.8534 88.25 97.7184 88.61 97.5234 88.79C96.2484 90.02 94.7034 90.62 92.9934 90.635Z" fill="#222A3F" stroke="#222A3F" stroke-width="0.4"/>
<path d="M97.3472 82.94C97.3472 83.3 97.3622 83.66 97.3472 84.005C97.3322 84.485 97.0022 84.815 96.5522 84.845C96.1022 84.875 95.7122 84.605 95.6822 84.14C95.6372 83.315 95.6372 82.49 95.6822 81.665C95.7122 81.2 96.0872 80.945 96.5522 80.975C97.0022 81.005 97.3172 81.32 97.3322 81.785C97.3622 82.16 97.3472 82.55 97.3472 82.94Z" fill="#222A3F" stroke="#222A3F" stroke-width="0.4"/>
<path d="M90.1916 82.925C90.1916 83.3 90.2066 83.66 90.1916 84.035C90.1616 84.515 89.8616 84.815 89.4116 84.845C88.9316 84.875 88.5716 84.59 88.5416 84.095C88.4966 83.3 88.4966 82.505 88.5416 81.71C88.5716 81.215 88.9466 80.945 89.4116 80.975C89.8616 81.005 90.1616 81.305 90.1916 81.785C90.2066 82.16 90.1916 82.55 90.1916 82.925Z" fill="#222A3F" stroke="#222A3F" stroke-width="0.4"/>
<path d="M74.4083 82.4C72.2783 82.34 70.5833 81.68 69.1583 80.33C68.7833 79.97 68.7383 79.475 69.0083 79.145C69.3533 78.725 69.8483 78.695 70.2833 79.085C71.0633 79.805 71.9333 80.33 72.9833 80.555C74.8583 80.96 76.5083 80.525 77.9633 79.295C78.1283 79.16 78.2783 78.995 78.4583 78.905C78.8183 78.725 79.2533 78.845 79.4933 79.16C79.7333 79.49 79.7033 79.97 79.3733 80.285C78.3083 81.32 77.0483 82.01 75.5633 82.25C75.1433 82.325 74.6933 82.355 74.4083 82.4Z" fill="#222A3F" stroke="#222A3F" stroke-width="0.4"/>
<path d="M71.1105 72.17C71.1105 72.575 71.1255 72.965 71.1105 73.37C71.0955 73.88 70.7655 74.225 70.3005 74.255C69.8355 74.27 69.4605 73.94 69.4605 73.43C69.4455 72.59 69.4455 71.75 69.4605 70.91C69.4755 70.415 69.8055 70.1 70.2705 70.1C70.7505 70.1 71.0955 70.43 71.1105 70.94C71.1255 71.345 71.1105 71.75 71.1105 72.17Z" fill="#222A3F" stroke="#222A3F" stroke-width="0.4"/>
<path d="M79.0909 72.2C79.0909 72.605 79.1059 72.995 79.0909 73.4C79.0759 73.91 78.7159 74.255 78.2509 74.24C77.7859 74.24 77.4409 73.895 77.4409 73.385C77.4259 72.575 77.4259 71.75 77.4409 70.94C77.4559 70.415 77.7709 70.085 78.2509 70.085C78.7609 70.07 79.0759 70.4 79.1059 70.955C79.1059 71.375 79.0909 71.78 79.0909 72.2Z" fill="#222A3F" stroke="#222A3F" stroke-width="0.4"/>
</svg>
