<svg width="160" height="160" viewBox="0 0 160 160" fill="none" xmlns="http://www.w3.org/2000/svg">
<path d="M75 2.88675C78.094 1.10042 81.906 1.10042 85 2.88675L144.282 37.1132C147.376 38.8996 149.282 42.2008 149.282 45.7735V114.226C149.282 117.799 147.376 121.1 144.282 122.887L85 157.113C81.906 158.9 78.094 158.9 75 157.113L15.718 122.887C12.6239 121.1 10.718 117.799 10.718 114.226V45.7735C10.718 42.2008 12.624 38.8996 15.718 37.1132L75 2.88675Z" fill="#F1F6FE"/>
<g clip-path="url(#clip0_14_13874)">
<path d="M67.9996 63C73.5996 63 78.3329 67.3333 79.9996 69.5L85.9995 64.5C88.4995 63.5 94.7995 62.1 99.9995 64.5C106.5 67.5 107.5 72 108.5 75C109.5 78 108.5 81.5 108 83.5C107.6 85.1 106.166 87.5 105.5 88.5C99.1662 95 85.9995 108.4 83.9995 110C81.4995 112 78.9995 111.5 76.4995 110C74.4995 108.8 69.6662 103.833 67.4995 101.5C62.1662 97 51.3996 86.5 50.9996 80.5C50.4996 73 52.4996 72 54.4996 69C56.4996 66 60.9996 63 67.9996 63Z" fill="#FF9696"/>
<path d="M76.5 110C75.3 109.2 72.6667 107 71.5 106C71.5 105.333 71.7 103.6 72.5 102C73.5 100 74.5 99.5 75.5 98.5C76.5 97.5 77 97.5 77 96.5C77 95.5 76 94 76 93C76 92 75.5 91 77.5 89.5C79.5 88 81 89 82.5 89.5C83.7 89.9 84.3333 92.3333 84.5 93.5L83 96C82.8333 96.5 82.8 97.7 84 98.5C85.5 99.5 87 101.5 87.5 102.5C87.9 103.3 88.3333 105.167 88.5 106C87.8333 106.5 86.2 107.8 85 109C83.5 110.5 80.5 111 80 111C79.5 111 78 111 76.5 110Z" fill="white"/>
<path d="M62.5 90.5L58.5 92L68.5 102.5C69.6667 103.833 72 106.2 72 105C72 103.5 73.5 101 74.5 99.5C75.3 98.3 76.8333 97.3333 77.5 97C76.5 95.6667 74.4 92.9 74 92.5C73.6 92.1 71.1667 91.3333 70 91L68.5 90C69.1667 88.8333 70.6 86.2 71 85C71.5 83.5 70.5 81.5 70 80.5C69.5 79.5 67.5 78 65.5 78C63.5 78 62 79.5 61 80.5C60 81.5 60 85 60 86.5C60 87.7 61.6667 89.6667 62.5 90.5Z" fill="#D7E0EF"/>
<path d="M97 90.5L101 92L91 102.5C89.8333 103.833 87.5 106.2 87.5 105C87.5 103.5 86 101 85 99.5C84.2 98.3 82.6667 97.3333 82 97C83 95.6667 85.1 92.9 85.5 92.5C85.9 92.1 88.3333 91.3333 89.5 91L91 90C90.3333 88.8333 88.9 86.2 88.5 85C88 83.5 89 81.5 89.5 80.5C90 79.5 92 78 94 78C96 78 97.5 79.5 98.5 80.5C99.5 81.5 99.5 85 99.5 86.5C99.5 87.7 97.8333 89.6667 97 90.5Z" fill="#D7E0EF"/>
<path d="M108.376 71.4024C108.097 70.8183 107.398 70.5705 106.813 70.849C106.229 71.1276 105.981 71.8272 106.26 72.4115C108.878 77.9026 107.746 84.4838 103.442 88.788L101.588 90.6417C100.84 90.3103 100.052 90.0705 99.2452 89.9273C100.246 88.7924 100.855 87.3045 100.855 85.6761V83.336C100.855 79.7864 97.9665 76.8985 94.4169 76.8985C90.8673 76.8985 87.9795 79.7864 87.9795 83.336V85.6761C87.9795 87.3048 88.5887 88.7932 89.5897 89.9283C87.9577 90.219 86.4382 90.9025 85.1527 91.895C84.6298 89.5375 82.5239 87.7686 80.0113 87.7686C77.5006 87.7686 75.3959 89.5348 74.871 91.8896C73.587 90.8983 72.068 90.2171 70.4335 89.9273C71.4341 88.7924 72.043 87.3043 72.043 85.676V83.3358C72.043 79.7862 69.1551 76.8984 65.6055 76.8984C62.0559 76.8984 59.1681 79.7862 59.1681 83.3358V85.676C59.1681 87.3042 59.7769 88.7922 60.7773 89.9271C59.9632 90.0715 59.1685 90.3143 58.4148 90.6501L56.5524 88.7877C53.8335 86.069 52.3362 82.4541 52.3362 78.6093C52.3362 74.7644 53.8334 71.1495 56.5524 68.4308C59.2711 65.7121 62.8859 64.2147 66.7308 64.2147C70.5758 64.2147 74.1906 65.7121 76.9093 68.4308L79.1682 70.6898C79.626 71.1475 80.368 71.1475 80.8259 70.6898L83.0848 68.4308C87.3891 64.1265 93.9704 62.994 99.4616 65.6129C100.046 65.8914 100.745 65.6438 101.024 65.0596C101.303 64.4753 101.055 63.7758 100.471 63.4971C94.0851 60.4516 86.4322 61.7683 81.4272 66.7732L79.997 68.2035L78.5668 66.7732C75.4053 63.6117 71.2019 61.8706 66.7308 61.8706C62.2599 61.8706 58.0564 63.6117 54.8948 66.7732C48.3684 73.2997 48.3684 83.919 54.8948 90.4454L74.1612 109.712C75.72 111.27 77.7926 112.129 79.9971 112.129C82.2017 112.129 84.2742 111.27 85.8331 109.712L105.099 90.4453C110.104 85.4408 111.421 77.7879 108.376 71.4024ZM90.3236 83.3361C90.3236 81.079 92.1599 79.2428 94.4169 79.2428C96.6741 79.2428 98.5104 81.079 98.5104 83.3361V85.6762C98.5104 87.9333 96.6741 89.7696 94.4169 89.7696C92.1599 89.7696 90.3236 87.9333 90.3236 85.6762V83.3361ZM91.3669 92.1137H97.4671C98.2496 92.1137 99.027 92.2323 99.7695 92.4602L88.8959 103.334C88.3685 100.556 86.5707 98.2238 84.1309 96.9651C85.3277 94.0485 88.1889 92.1137 91.3669 92.1137ZM80.0113 90.1129C81.6231 90.1129 82.9344 91.4242 82.9344 93.0361C82.9344 94.6481 81.6231 95.9594 80.0113 95.9594C78.3993 95.9594 77.088 94.6481 77.088 93.0361C77.088 91.4242 78.3993 90.1129 80.0113 90.1129ZM61.5122 83.3361C61.5122 81.079 63.3485 79.2428 65.6055 79.2428C67.8626 79.2428 69.6989 81.079 69.6989 83.3361V85.6762C69.6989 87.9333 67.8626 89.7696 65.6055 89.7696C63.3485 89.7696 61.5122 87.9333 61.5122 85.6762V83.3361ZM62.5553 92.1137H68.6556C71.8369 92.1137 74.6817 94.0366 75.8833 96.9454C73.4286 98.197 71.6166 100.532 71.0826 103.318L60.231 92.4666C60.9802 92.2343 61.7655 92.1137 62.5553 92.1137ZM84.1753 108.054C83.0593 109.17 81.5753 109.785 79.997 109.785C78.4187 109.785 76.9347 109.17 75.8187 108.054L73.2628 105.498V105.029C73.2628 101.32 76.2795 98.3036 79.9879 98.3036C83.696 98.3036 86.7128 101.32 86.7128 105.029V105.517L84.1753 108.054Z" fill="#222A3F"/>
<path d="M104.27 68.7743C104.578 68.7743 104.88 68.6489 105.098 68.4309C105.316 68.2129 105.442 67.9105 105.442 67.6022C105.442 67.294 105.316 66.9916 105.098 66.7736C104.88 66.5556 104.578 66.4302 104.27 66.4302C103.961 66.4302 103.659 66.5556 103.441 66.7736C103.223 66.9916 103.098 67.294 103.098 67.6022C103.098 67.9105 103.223 68.2129 103.441 68.4309C103.659 68.6489 103.962 68.7743 104.27 68.7743Z" fill="#222A3F"/>
</g>
<defs>
<clipPath id="clip0_14_13874">
<rect width="60" height="60" fill="white" transform="translate(50 57)"/>
</clipPath>
</defs>
</svg>
