<svg width="160" height="160" viewBox="0 0 160 160" fill="none" xmlns="http://www.w3.org/2000/svg">
<path d="M75 2.88675C78.094 1.10042 81.906 1.10042 85 2.88675L144.282 37.1132C147.376 38.8996 149.282 42.2008 149.282 45.7735V114.226C149.282 117.799 147.376 121.1 144.282 122.887L85 157.113C81.906 158.9 78.094 158.9 75 157.113L15.718 122.887C12.6239 121.1 10.718 117.799 10.718 114.226V45.7735C10.718 42.2008 12.624 38.8996 15.718 37.1132L75 2.88675Z" fill="#F1F6FE"/>
<g clip-path="url(#clip0_14_13889)">
<path d="M74.5009 67.4999L75.0009 70.9999V72H78.001C78.7823 72.5 80.6761 73.7 82.0009 74.5C83.6568 75.5 84.0009 76.5 84.0009 77C84.0009 77.4 83.3343 78.1667 83.001 78.5C82.8343 78.5 82.301 78.3 81.5009 77.5C80.7008 76.7 78.8342 76.5 78.001 76.5H70.501C69.301 76.5 68.3343 78.8333 68.001 80C67.0009 82.6667 64.9009 88.3 64.5009 89.5C64.1009 90.7 64.6675 91.6667 65.0009 92L74.0009 98.5L80.5009 103L81.0009 105L82.0009 106H96.0009L97.5009 105V103L95.5009 97C95.0009 95.5 95.5009 93.5 95.5009 92V86.5C95.5009 85.3 94.8342 84 94.5009 83.5C94.0009 82.6667 92.9009 80.7 92.5009 79.5C92.0009 78 88.0009 74.5 86.5009 73.5C85.0009 72.5 83.5009 70.5 82.5009 69C81.5009 67.5 82.0009 65.5 82.5009 63.5C83.0009 61.5 84.0009 60 84.0009 59C84.0009 58 82.5009 57.4999 81.5009 56.9999C80.7009 56.5999 79.5009 57.1665 79.0009 57.4999L80.0009 60.4999L79.0009 62.4999L74.5009 67.4999Z" fill="#D7E0EF"/>
<path d="M81.7744 56.1051C80.8719 55.9449 79.9423 56.0747 79.1181 56.4758C78.0546 55.8131 76.6785 55.9457 75.7613 56.7996L72.8126 59.5604V59.3199C72.8126 56.8354 70.7985 54.8213 68.3136 54.8213C66.823 54.8213 65.6145 56.0298 65.6145 57.5204V66.333L63.4118 68.7219C62.7861 69.3974 62.4455 70.2883 62.4599 71.2089C62.4422 74.3454 62.6737 77.479 63.1527 80.5788C63.172 80.6497 63.2005 80.7176 63.2371 80.7815L61.7688 84.9123C61.2102 86.4498 61.7725 88.1702 63.1309 89.0817L63.6449 89.431C63.1201 90.9603 63.6778 92.652 65.0086 93.57L79.577 103.557C79.8224 103.725 79.9687 104.003 79.9687 104.3C79.9687 105.791 81.1771 107 82.6677 107H95.7442C96.5651 107.002 97.3419 106.628 97.8514 105.984C98.3712 105.33 98.5598 104.473 98.3626 103.661L97.0491 98.8022C96.5869 96.6789 96.451 94.4976 96.6458 92.3336C97.3872 82.9303 91.0833 76.1375 89.4844 74.957C86.5431 72.7889 84.3494 70.5285 83.4639 68.7549C82.1368 66.0937 83.0314 64.2732 83.896 62.5132C84.6213 61.0366 85.3717 59.5106 84.307 57.91C83.7444 56.9882 82.8296 56.3362 81.7744 56.1051ZM68.3136 56.6208C69.8046 56.6208 71.0131 57.8293 71.0131 59.3199V61.2454L67.414 64.6142V57.5204C67.414 57.2819 67.5088 57.0529 67.6776 56.8844C67.8461 56.7155 68.0751 56.6208 68.3136 56.6208ZM64.2594 71.1846C64.252 70.7245 64.4225 70.2793 64.7351 69.9419L67.1096 67.3623C67.1315 67.3438 67.1517 67.3244 67.171 67.3038L72.4547 62.3596C72.5057 62.3209 72.5523 62.2768 72.5939 62.2282L77.0138 58.0892C77.366 57.7465 77.9274 57.7465 78.2795 58.0892L78.3409 58.0278C78.3627 58.0533 78.3862 58.0768 78.4109 58.0991L78.3541 58.172C79.3315 59.2309 79.3043 60.8706 78.2931 61.897L74.7542 65.2947L69.7712 69.7825C69.4475 70.1273 69.2774 70.5882 69.2988 71.0602C67.6245 71.2781 66.213 72.4153 65.6442 74.0052L64.5148 77.1816C64.334 74.9698 64.2763 72.4655 64.2594 71.1846ZM71.0905 71.017L73.6907 68.6775C73.6565 69.4584 73.685 70.241 73.7764 71.017H71.0905ZM63.4612 85.526L67.3411 74.6082C67.7295 73.529 68.7555 72.8111 69.9026 72.8165H77.6238C77.8104 72.8177 77.9924 72.8762 78.1444 72.9841L82.802 76.2845C82.9841 76.4106 83.0944 76.6169 83.0977 76.8385C83.0994 76.965 83.0664 77.0893 83.0026 77.1985C82.9709 77.2508 82.9297 77.3027 82.8918 77.3542L81.4304 76.3088C80.6701 75.7627 79.7574 75.4694 78.8211 75.4702H71.74C69.8351 75.4731 68.1385 76.6758 67.5046 78.4725L64.2656 87.6772L64.1486 87.5981C63.4682 87.1492 63.184 86.2925 63.4612 85.526ZM82.2847 61.7315C81.3756 63.5796 80.1322 66.1114 81.858 69.5704C83.2374 72.3354 86.5613 75.0472 88.4201 76.4155C89.615 77.2949 95.5354 83.5753 94.8554 92.203C94.6453 94.5606 94.7969 96.9368 95.3051 99.2483L96.6186 104.107C96.68 104.374 96.6166 104.654 96.4465 104.868C96.2764 105.083 96.0177 105.208 95.7442 105.209H82.6632C82.1665 105.209 81.7636 104.805 81.7636 104.309C81.7649 103.419 81.327 102.585 80.5939 102.081L66.0264 92.0934C65.355 91.6313 65.0766 90.7766 65.3472 90.0077L69.2008 79.0664C69.5814 77.9906 70.5971 77.2702 71.7384 77.2669H78.8195C79.3809 77.2665 79.9283 77.4423 80.3842 77.7698L84.5385 80.7436C84.8305 80.9561 84.9121 81.3556 84.7276 81.6658C84.3503 82.2984 83.73 82.7478 83.0121 82.9101C82.2937 83.072 81.5404 82.9319 80.9283 82.5225L79.1288 81.3215C78.6865 81.0237 78.165 80.8651 77.6316 80.8659H74.8605C73.6891 80.8589 72.6491 81.6147 72.2944 82.7313C72.2413 82.8994 72.1655 83.1082 72.0803 83.343C71.4324 85.1334 69.9208 89.3231 73.3505 90.6988C73.6516 90.8327 74.0017 90.7911 74.2632 90.5909C74.5248 90.3907 74.6558 90.0637 74.6051 89.7383C74.5544 89.4125 74.33 89.1411 74.0202 89.0294C72.5111 88.424 72.8295 86.5623 73.7727 83.9559C73.8678 83.6931 73.9527 83.462 74.0103 83.2746C74.1302 82.9076 74.4745 82.6609 74.8605 82.6654H77.6308C77.8075 82.6654 77.9801 82.7181 78.1267 82.8166L79.9262 84.0189C80.9485 84.7014 82.206 84.9349 83.405 84.6647C84.604 84.3945 85.6399 83.6441 86.2705 82.5892C86.9303 81.4738 86.6321 80.0393 85.5822 79.2797L84.3523 78.395C84.4178 78.3052 84.4891 78.2154 84.5447 78.1252C85.2128 77.0107 84.9071 75.5699 83.8449 74.8223L79.1885 71.5166C78.7309 71.1928 78.1844 71.0182 77.6238 71.017H75.5891C75.4021 69.6236 75.4474 68.2083 75.7225 66.8293L79.5564 63.1838C80.9423 61.7912 81.2644 59.6601 80.3517 57.9199C81.3056 57.6196 82.3378 58.0389 82.8127 58.9187C83.2588 59.5901 83.0088 60.2577 82.2847 61.7315Z" fill="black"/>
<path d="M78.4597 90.8121C78.1545 90.7104 77.818 90.7792 77.577 90.9925C77.3361 91.2059 77.2274 91.5317 77.2916 91.8472C77.3563 92.1627 77.584 92.4197 77.8892 92.5218C79.966 93.2179 85.3575 95.7152 85.3575 98.8661C85.3575 99.3628 85.7603 99.7656 86.2571 99.7656C86.7542 99.7656 87.157 99.3628 87.157 98.8661C87.1541 93.7723 78.8152 90.9283 78.4597 90.8121Z" fill="black"/>
<path d="M84.5382 87.519C84.3433 87.2628 84.027 87.1302 83.7082 87.171C83.389 87.2117 83.1159 87.4193 82.9919 87.7159C82.8676 88.0124 82.9108 88.3527 83.1056 88.6084C84.4784 90.408 86.7623 92.5621 89.8457 92.5621C90.3428 92.5621 90.7456 92.1593 90.7456 91.6621C90.7456 91.1654 90.3428 90.7626 89.8457 90.7626C87.4992 90.7626 85.6671 88.9981 84.5382 87.519Z" fill="black"/>
<path d="M85.154 53.3014L84.2965 54.2014C84.0621 54.4316 83.9719 54.7714 84.0613 55.0873C84.1507 55.4037 84.4056 55.6463 84.7256 55.7196C85.0461 55.7933 85.3809 55.6866 85.5992 55.4411L86.4568 54.5412C86.6911 54.3109 86.7814 53.9711 86.692 53.6548C86.6026 53.3389 86.3476 53.0963 86.0276 53.023C85.7072 52.9492 85.3723 53.0559 85.154 53.3014Z" fill="black"/>
<path d="M89.4127 57.3405C89.3485 57.1106 89.1953 56.9158 88.9869 56.7989C88.7789 56.6819 88.5325 56.6522 88.3027 56.7169L87.133 57.0464C86.6964 57.165 86.4155 57.5893 86.4772 58.0378C86.539 58.4859 86.9241 58.8183 87.3768 58.8146C87.4596 58.8146 87.542 58.8031 87.6215 58.7804L88.7912 58.4517C89.021 58.3871 89.2159 58.2334 89.3324 58.025C89.449 57.8166 89.4778 57.5703 89.4127 57.3405Z" fill="black"/>
<path d="M86.9052 61C86.4266 60.8657 85.9299 61.1446 85.7956 61.6232C85.6609 62.1018 85.9401 62.5985 86.4183 62.7328L87.5881 63.0623C87.668 63.0846 87.7504 63.0961 87.8332 63.0957C88.2825 63.0953 88.6631 62.7633 88.7241 62.318C88.785 61.8724 88.5078 61.4506 88.0749 61.3291L86.9052 61Z" fill="black"/>
</g>
<defs>
<clipPath id="clip0_14_13889">
<rect width="54" height="54" fill="white" transform="translate(53 53)"/>
</clipPath>
</defs>
</svg>
