<svg width="160" height="160" viewBox="0 0 160 160" fill="none" xmlns="http://www.w3.org/2000/svg">
<path d="M75 2.88675C78.094 1.10042 81.906 1.10042 85 2.88675L144.282 37.1132C147.376 38.8996 149.282 42.2008 149.282 45.7735V114.226C149.282 117.799 147.376 121.1 144.282 122.887L85 157.113C81.906 158.9 78.094 158.9 75 157.113L15.718 122.887C12.6239 121.1 10.718 117.799 10.718 114.226V45.7735C10.718 42.2008 12.624 38.8996 15.718 37.1132L75 2.88675Z" fill="#F1F6FE"/>
<g clip-path="url(#clip0_14_16006)">
<path d="M70.5813 79.2502C69.1863 77.8252 67.7763 76.4902 66.4863 75.0502C65.6913 74.1652 64.9413 73.8952 63.6663 74.0602C59.1663 74.6452 55.3863 73.0702 52.5363 69.5152C49.5663 65.8102 49.1763 60.4102 51.5163 56.2852C52.0413 55.3552 52.7913 55.2352 53.5413 55.9852C55.4163 57.8602 57.2913 59.7352 59.1663 61.6102C59.2713 61.7152 59.3613 61.8202 59.4663 61.9102C60.2013 62.5702 61.1763 62.5852 61.8363 61.9402C62.5263 61.2802 62.5563 60.2452 61.8513 59.5252C60.8313 58.4602 59.7813 57.4402 58.7313 56.4052C57.7863 55.4602 56.8563 54.5302 55.9113 53.5852C55.1613 52.8202 55.2663 52.0852 56.1813 51.5602C63.3363 47.4652 72.6663 51.9052 74.0013 59.9902C74.2713 61.5802 74.2413 63.1552 73.9113 64.7302C73.8663 64.9702 73.9563 65.3602 74.1213 65.5252C76.4613 67.9102 78.8463 70.2802 81.2013 72.6502C81.2913 72.7402 81.4113 72.8302 81.5913 72.9652C82.5963 71.9452 83.5863 70.9552 84.5613 69.9502C84.6963 69.8152 84.8163 69.6802 84.9513 69.5602C85.5363 68.9752 86.1963 68.9152 86.6763 69.3802C87.1713 69.8602 87.1263 70.5652 86.5413 71.1652C85.5213 72.2002 84.5013 73.2202 83.4663 74.2402C83.3763 74.3302 83.3013 74.4202 83.2413 74.4802C83.9913 75.2302 84.7263 75.9652 85.4313 76.6702C90.1713 71.9452 94.9713 67.1602 99.7113 62.4202C98.9913 61.7002 98.2713 60.9652 97.4763 60.1852C96.6063 61.0702 95.6763 62.0152 94.7463 62.9452C94.5813 63.1252 94.4013 63.3052 94.2363 63.4702C93.7113 63.9652 93.0363 63.9952 92.6013 63.5452C92.1363 63.0802 92.1213 62.4202 92.6313 61.8952C93.8013 60.6952 95.0013 59.5252 96.1563 58.3252C96.4413 58.0252 96.6663 57.6502 96.8163 57.2602C97.1463 56.4502 97.3713 55.5952 97.7163 54.8002C97.8813 54.4402 98.1663 54.0502 98.5113 53.8552C100.656 52.6252 102.816 51.4402 104.976 50.2552C105.726 49.8352 106.071 49.8802 106.671 50.4802C107.616 51.4102 108.561 52.3552 109.491 53.3002C110.091 53.9152 110.136 54.2452 109.731 54.9802C108.546 57.1252 107.391 59.2852 106.161 61.4002C105.936 61.7902 105.501 62.1952 105.081 62.2852C102.876 62.8102 101.226 64.1152 99.6813 65.7352C95.6913 69.8602 91.5963 73.8802 87.5313 77.9302C87.3813 78.0802 87.1713 78.1852 86.9613 78.3352C87.2013 78.6052 87.3063 78.7402 87.4413 78.8602C89.7663 81.1852 92.0913 83.5102 94.4313 85.8202C94.6113 86.0002 94.9863 86.1352 95.2263 86.0752C101.646 84.5752 108.276 88.6852 109.716 95.3602C110.361 98.3452 109.881 101.15 108.411 103.805C107.931 104.66 107.166 104.75 106.446 104.045C104.541 102.14 102.636 100.235 100.716 98.3302C100.461 98.0752 100.161 97.8352 99.8313 97.7002C99.1113 97.4002 98.2713 97.7002 97.8513 98.3602C97.4013 99.0352 97.4763 99.8602 98.0913 100.49C99.1113 101.54 100.161 102.575 101.211 103.61C102.156 104.555 103.086 105.485 104.031 106.43C104.781 107.195 104.661 107.93 103.716 108.455C96.4863 112.475 87.4113 108.11 85.9863 99.9352C85.7163 98.3602 85.7463 96.8152 86.0763 95.2552C86.1213 95.0152 86.0613 94.6552 85.9113 94.4902C84.3063 92.8402 82.6713 91.2052 81.0363 89.5702C80.9613 89.4952 80.8863 89.4502 80.6163 89.2402C80.4663 89.4652 80.3613 89.7202 80.1813 89.9152C74.2413 95.9002 68.3013 101.84 62.3613 107.765C59.5263 110.6 55.3263 110.75 52.4163 108.185C49.3563 105.47 49.1763 100.76 52.0863 97.8052C56.2563 93.5752 60.4863 89.3902 64.6863 85.1902C66.5463 83.3302 68.4063 81.4702 70.2813 79.5952C70.3863 79.4902 70.4613 79.3852 70.5813 79.2502ZM67.2813 85.7452C66.0213 87.0352 64.7613 88.3102 63.5013 89.5852C60.2913 92.8102 57.0663 96.0202 53.8563 99.2452C52.4613 100.64 51.9513 102.32 52.5363 104.225C53.6313 107.765 57.9513 108.905 60.6063 106.295C65.1063 101.87 69.5313 97.3852 74.0013 92.9302C74.0913 92.8402 74.1663 92.7052 74.2113 92.6602C71.8863 90.3652 69.6213 88.1002 67.2813 85.7452ZM69.0813 84.1552C69.0963 84.1702 69.1113 84.2452 69.1413 84.2752C71.2863 86.4352 73.4463 88.5802 75.5763 90.7402C75.8463 91.0102 76.0113 90.8902 76.2213 90.6802C77.0313 89.8552 77.8713 89.0302 78.6813 88.2052C78.8313 88.0552 78.9663 87.8902 79.0263 87.8152C76.7013 85.4752 74.4363 83.2102 72.2463 81.0052C71.2413 82.0402 70.1613 83.0902 69.0813 84.1552ZM107.376 54.5002C107.301 54.3952 107.226 54.2752 107.136 54.1702C106.731 53.7652 106.311 53.3752 105.936 52.9552C105.651 52.6252 105.396 52.6402 105.036 52.8502C103.461 53.7502 101.856 54.5902 100.281 55.5052C99.9813 55.6702 99.7713 56.0302 99.5763 56.3452C98.7363 57.6952 99.2013 58.6402 100.281 59.7202C101.361 60.7852 102.291 61.2802 103.656 60.4402C103.941 60.2602 104.286 60.1102 104.436 59.8552C105.381 58.2052 106.281 56.5402 107.196 54.8752C107.256 54.7402 107.316 54.6352 107.376 54.5002Z" fill="#D1DCEE"/>
<path d="M67.5017 84L76.0017 92.5L62.5015 106C60.8349 107.667 56.7017 110.3 53.5017 107.5C50.3017 104.7 51.5017 100.667 52.5017 99L67.5017 84Z" fill="#B28CFF"/>
<path d="M70.5813 79.2502C69.1863 77.8252 67.7763 76.4902 66.4863 75.0502C65.6913 74.1652 64.9413 73.8952 63.6663 74.0602C59.1663 74.6452 55.3863 73.0702 52.5363 69.5152C49.5663 65.8102 49.1763 60.4102 51.5163 56.2852C52.0413 55.3552 52.7913 55.2352 53.5413 55.9852C55.4163 57.8602 57.2913 59.7352 59.1663 61.6102C59.2713 61.7152 59.3613 61.8202 59.4663 61.9102C60.2013 62.5702 61.1763 62.5852 61.8363 61.9402C62.5263 61.2802 62.5563 60.2452 61.8513 59.5252C60.8313 58.4602 59.7813 57.4402 58.7313 56.4052C57.7863 55.4602 56.8563 54.5302 55.9113 53.5852C55.1613 52.8202 55.2663 52.0852 56.1813 51.5602C63.3363 47.4652 72.6663 51.9052 74.0013 59.9902C74.2713 61.5802 74.2413 63.1552 73.9113 64.7302C73.8663 64.9702 73.9563 65.3602 74.1213 65.5252C76.4613 67.9102 78.8463 70.2802 81.2013 72.6502C81.2913 72.7402 81.4113 72.8302 81.5913 72.9652C82.5963 71.9452 83.5863 70.9552 84.5613 69.9502C84.6963 69.8152 84.8163 69.6802 84.9513 69.5602C85.5363 68.9752 86.1963 68.9152 86.6763 69.3802C87.1713 69.8602 87.1263 70.5652 86.5413 71.1652C85.5213 72.2002 84.5013 73.2202 83.4663 74.2402C83.3763 74.3302 83.3013 74.4202 83.2413 74.4802C83.9913 75.2302 84.7263 75.9652 85.4313 76.6702C90.1713 71.9452 94.9713 67.1602 99.7113 62.4202C98.9913 61.7002 98.2713 60.9652 97.4763 60.1852C96.6063 61.0702 95.6763 62.0152 94.7463 62.9452C94.5813 63.1252 94.4013 63.3052 94.2363 63.4702C93.7113 63.9652 93.0363 63.9952 92.6013 63.5452C92.1363 63.0802 92.1213 62.4202 92.6313 61.8952C93.8013 60.6952 95.0013 59.5252 96.1563 58.3252C96.4413 58.0252 96.6663 57.6502 96.8163 57.2602C97.1463 56.4502 97.3713 55.5952 97.7163 54.8002C97.8813 54.4402 98.1663 54.0502 98.5113 53.8552C100.656 52.6252 102.816 51.4402 104.976 50.2552C105.726 49.8352 106.071 49.8802 106.671 50.4802C107.616 51.4102 108.561 52.3552 109.491 53.3002C110.091 53.9152 110.136 54.2452 109.731 54.9802C108.546 57.1252 107.391 59.2852 106.161 61.4002C105.936 61.7902 105.501 62.1952 105.081 62.2852C102.876 62.8102 101.226 64.1152 99.6813 65.7352C95.6913 69.8602 91.5963 73.8802 87.5313 77.9302C87.3813 78.0802 87.1713 78.1852 86.9613 78.3352C87.2013 78.6052 87.3063 78.7402 87.4413 78.8602C89.7663 81.1852 92.0913 83.5102 94.4313 85.8202C94.6113 86.0002 94.9863 86.1352 95.2263 86.0752C101.646 84.5752 108.276 88.6852 109.716 95.3602C110.361 98.3452 109.881 101.15 108.411 103.805C107.931 104.66 107.166 104.75 106.446 104.045C104.541 102.14 102.636 100.235 100.716 98.3302C100.461 98.0752 100.161 97.8352 99.8313 97.7002C99.1113 97.4002 98.2713 97.7002 97.8513 98.3602C97.4013 99.0352 97.4763 99.8602 98.0913 100.49C99.1113 101.54 100.161 102.575 101.211 103.61C102.156 104.555 103.086 105.485 104.031 106.43C104.781 107.195 104.661 107.93 103.716 108.455C96.4863 112.475 87.4113 108.11 85.9863 99.9352C85.7163 98.3602 85.7463 96.8152 86.0763 95.2552C86.1213 95.0152 86.0613 94.6552 85.9113 94.4902C84.3063 92.8402 82.6713 91.2052 81.0363 89.5702C80.9613 89.4952 80.8863 89.4502 80.6163 89.2402C80.4663 89.4652 80.3613 89.7202 80.1813 89.9152C74.2413 95.9002 68.3013 101.84 62.3613 107.765C59.5263 110.6 55.3263 110.75 52.4163 108.185C49.3563 105.47 49.1763 100.76 52.0863 97.8052C56.2563 93.5752 60.4863 89.3902 64.6863 85.1902C66.5463 83.3302 68.4063 81.4702 70.2813 79.5952C70.3863 79.4902 70.4613 79.3852 70.5813 79.2502ZM52.9563 58.6252C52.8813 58.8202 52.8213 58.9402 52.7613 59.0752C51.3813 63.0052 52.8213 67.5352 56.3163 70.0552C58.9113 71.9302 61.7913 72.3652 64.8663 71.5252C65.4813 71.3602 66.0063 71.3752 66.4863 71.8552C68.3313 73.7302 70.2063 75.5902 72.0663 77.4502C77.3313 82.7152 82.5963 87.9952 87.8913 93.2452C88.4913 93.8302 88.6863 94.4002 88.4313 95.2102C87.9663 96.7402 87.9063 98.3002 88.2513 99.8602C89.3763 104.885 93.6363 108.05 98.7963 107.66C99.6363 107.6 100.461 107.315 101.421 107.105C99.7263 105.41 98.2113 103.85 96.6513 102.32C94.9413 100.64 94.8363 98.1352 96.4113 96.5152C97.9863 94.8952 100.536 94.9702 102.216 96.6652C103.626 98.0902 105.036 99.5002 106.461 100.91C106.611 101.06 106.776 101.21 106.986 101.39C107.076 101.165 107.136 101.015 107.181 100.865C108.066 98.1352 107.751 95.4952 106.371 93.0052C104.196 89.0602 99.5763 87.2152 95.0613 88.4602C94.4163 88.6402 93.8913 88.5802 93.3963 88.0852C86.2263 80.9002 79.0563 73.7302 71.8713 66.5602C71.3913 66.0802 71.2713 65.5852 71.4513 64.9552C71.8713 63.5302 71.9613 62.0902 71.7663 60.6052C71.1063 55.5802 66.1263 51.6802 61.0713 52.3252C60.2463 52.4302 59.4363 52.6702 58.4913 52.8802C58.7763 53.1802 58.9113 53.3452 59.0763 53.5102C60.5163 54.9502 61.9263 56.3602 63.3513 57.7702C65.0163 59.4352 65.0763 61.9552 63.4863 63.5302C61.8963 65.1052 59.3613 65.0302 57.7263 63.3652C56.3163 61.9402 54.9063 60.5302 53.4963 59.1052C53.3313 58.9552 53.1663 58.8202 52.9563 58.6252ZM67.2813 85.7452C66.0213 87.0352 64.7613 88.3102 63.5013 89.5852C60.2913 92.8102 57.0663 96.0202 53.8563 99.2452C52.4613 100.64 51.9513 102.32 52.5363 104.225C53.6313 107.765 57.9513 108.905 60.6063 106.295C65.1063 101.87 69.5313 97.3852 74.0013 92.9302C74.0913 92.8402 74.1663 92.7052 74.2113 92.6602C71.8863 90.3652 69.6213 88.1002 67.2813 85.7452ZM69.0813 84.1552C69.0963 84.1702 69.1113 84.2452 69.1413 84.2752C71.2863 86.4352 73.4463 88.5802 75.5763 90.7402C75.8463 91.0102 76.0113 90.8902 76.2213 90.6802C77.0313 89.8552 77.8713 89.0302 78.6813 88.2052C78.8313 88.0552 78.9663 87.8902 79.0263 87.8152C76.7013 85.4752 74.4363 83.2102 72.2463 81.0052C71.2413 82.0402 70.1613 83.0902 69.0813 84.1552ZM107.376 54.5002C107.301 54.3952 107.226 54.2752 107.136 54.1702C106.731 53.7652 106.311 53.3752 105.936 52.9552C105.651 52.6252 105.396 52.6402 105.036 52.8502C103.461 53.7502 101.856 54.5902 100.281 55.5052C99.9813 55.6702 99.7713 56.0302 99.5763 56.3452C98.7363 57.6952 99.2013 58.6402 100.281 59.7202C101.361 60.7852 102.291 61.2802 103.656 60.4402C103.941 60.2602 104.286 60.1102 104.436 59.8552C105.381 58.2052 106.281 56.5402 107.196 54.8752C107.256 54.7402 107.316 54.6352 107.376 54.5002Z" fill="#222A3F"/>
<path d="M89.6602 67.595C89.0302 67.595 88.5352 67.115 88.5352 66.485C88.5352 65.855 89.0152 65.375 89.6452 65.375C90.2752 65.375 90.7702 65.87 90.7702 66.485C90.7852 67.085 90.2752 67.595 89.6602 67.595Z" fill="#222A3F"/>
<path d="M71.1072 69.8604C71.5572 70.1754 71.9472 70.3704 72.2322 70.6554C76.3122 74.7204 80.3772 78.7854 84.4572 82.8654C86.0772 84.4854 87.6972 86.1054 89.3022 87.7253C89.4672 87.9053 89.6622 88.0703 89.7822 88.2803C90.0522 88.7603 90.0072 89.2404 89.6172 89.6304C89.2272 90.0204 88.7472 90.0653 88.2672 89.8103C88.0872 89.7203 87.9372 89.5703 87.8022 89.4203C82.0572 83.6753 76.3122 77.9304 70.5672 72.1854C70.1472 71.7654 69.8472 71.2704 70.1622 70.7154C70.3272 70.4004 70.7322 70.1904 71.1072 69.8604Z" fill="#222A3F"/>
</g>
<defs>
<clipPath id="clip0_14_16006">
<rect width="60" height="60" fill="white" transform="translate(50 50)"/>
</clipPath>
</defs>
</svg>
