<svg width="160" height="160" viewBox="0 0 160 160" fill="none" xmlns="http://www.w3.org/2000/svg">
<path d="M75 2.88675C78.094 1.10042 81.906 1.10042 85 2.88675L144.282 37.1132C147.376 38.8996 149.282 42.2008 149.282 45.7735V114.226C149.282 117.799 147.376 121.1 144.282 122.887L85 157.113C81.906 158.9 78.094 158.9 75 157.113L15.718 122.887C12.6239 121.1 10.718 117.799 10.718 114.226V45.7735C10.718 42.2008 12.624 38.8996 15.718 37.1132L75 2.88675Z" fill="#D0DFFB" fill-opacity="0.3"/>
<g clip-path="url(#clip0_14_16029)">
<path d="M80.2349 47.3291L63.0859 51.1521V63.7476C63.0859 74.703 69.9393 84.4876 80.2349 88.2313C90.531 84.4876 97.3843 74.703 97.3843 63.7476V51.1521L80.2349 47.3291Z" fill="#D1DCEE"/>
<path d="M68.0039 55.0926L80.2382 52.3652L92.4721 55.0926V63.7477C92.4721 68.1087 91.1496 72.3022 88.6475 75.8741C86.495 78.947 83.6115 81.3573 80.2382 82.9194C76.8645 81.3573 73.981 78.947 71.8285 75.8741C69.3268 72.3022 68.0039 68.1087 68.0039 63.7477V55.0926Z" fill="#5FA9FF" fill-opacity="0.8"/>
<path d="M93.7897 79.4547C97.0306 74.8275 98.7437 69.3957 98.7437 63.7464V51.151C98.7437 50.529 98.3115 49.99 97.7045 49.8546L80.5551 46.0315C80.3647 45.9895 80.1675 45.9895 79.9771 46.0315L62.8282 49.8546C62.2207 49.99 61.7891 50.529 61.7891 51.151V63.7464C61.7891 69.3957 63.5021 74.8275 66.7431 79.4541C69.984 84.0813 74.5033 87.5474 79.8127 89.4784C79.959 89.5313 80.1131 89.5583 80.2661 89.5583C80.4197 89.5583 80.5738 89.5313 80.7201 89.4784C86.0295 87.5479 90.5487 84.0813 93.7897 79.4547ZM80.2661 86.8118C75.6685 85.039 71.7521 81.976 68.9189 77.9304C65.9924 73.7525 64.4453 68.8478 64.4453 63.7464V52.2156L80.2661 48.6888L96.0874 52.2156V63.7464C96.0874 68.8473 94.5404 73.752 91.6138 77.9304C88.7801 81.976 84.8637 85.039 80.2661 86.8118Z" fill="#222A3F"/>
<path d="M93.827 55.0915C93.827 54.4689 93.3954 53.9304 92.7879 53.795L80.5546 51.0676C80.3642 51.0256 80.1665 51.0256 79.9761 51.0676L67.7423 53.795C67.0264 53.9548 66.5755 54.6645 66.7353 55.3804C66.8946 56.0964 67.6048 56.5472 68.3202 56.3874L80.2651 53.7249L91.1708 56.156V63.7466C91.1708 67.8337 89.9314 71.7631 87.5869 75.1109C85.7031 77.8004 83.1807 79.9793 80.2651 81.4439C77.3494 79.9798 74.8275 77.8004 72.9438 75.1109C70.9158 72.2155 69.6977 68.8308 69.4217 65.3237C69.3983 65.0311 69.3817 64.7354 69.3718 64.4439C69.3464 63.7103 68.7275 63.137 67.9986 63.1619C67.2655 63.1873 66.6917 63.8021 66.7171 64.5352C66.7286 64.8656 66.7472 65.2013 66.7732 65.5323C67.0865 69.512 68.4681 73.3511 70.7679 76.6346C73.0398 79.8776 76.1308 82.4675 79.7074 84.1235C79.8843 84.2055 80.0752 84.2464 80.2656 84.2464C80.456 84.2464 80.6464 84.2055 80.8233 84.1235C84.4004 82.467 87.4914 79.8776 89.7628 76.6346C92.4216 72.8386 93.8275 68.3815 93.8275 63.7466V55.0915H93.827Z" fill="#222A3F"/>
<path d="M76.4825 70.6406C76.715 70.9156 77.0485 71.0842 77.4081 71.1081C77.4376 71.1102 77.4672 71.1112 77.4968 71.1112C77.8247 71.1112 78.1427 70.9898 78.3876 70.7683L88.0165 62.0566C88.5602 61.5648 88.6022 60.7248 88.1104 60.1806C87.618 59.6369 86.7781 59.5949 86.2344 60.0867L77.6239 67.8765L75.1663 64.9696C74.6932 64.4099 73.8548 64.3393 73.295 64.813C72.7347 65.2866 72.6647 66.1245 73.1378 66.6848L76.4825 70.6406Z" fill="#222A3F"/>
<path d="M69.0818 89.9547C68.382 89.0343 67.3646 88.4491 66.2175 88.3059C65.0705 88.1633 63.9405 88.4803 63.0357 89.1998C62.6124 89.5365 62.2705 89.9402 62.0127 90.3848L61.6225 89.8763C61.276 89.4255 61.0856 88.8642 61.0856 88.2956V76.3139C61.0856 73.8662 59.0939 71.8745 56.6462 71.8745C54.3438 71.8745 52.4439 73.6032 52.2266 75.8947L50.805 90.8864C50.68 92.1995 51.0504 93.5022 51.852 94.5606L63.1411 109.26V112.672C63.1411 113.405 63.7356 114 64.4692 114C65.2023 114 65.7973 113.405 65.7973 112.672V108.809C65.7973 108.516 65.7003 108.232 65.5224 108L53.964 92.9497C53.5702 92.4299 53.3876 91.786 53.4494 91.137L54.8714 76.1458C54.9586 75.2249 55.7217 74.5308 56.6462 74.5308C57.6299 74.5308 58.4293 75.3308 58.4293 76.3139V88.2956C58.4293 89.4463 58.8153 90.5819 59.5162 91.494L62.2965 95.1147C62.3006 95.1204 62.3048 95.1261 62.3089 95.1318L64.5522 98.0531C64.9994 98.6347 65.8331 98.7442 66.4147 98.2975C66.9963 97.8508 67.1057 97.0171 66.659 96.435L64.4085 93.5043C63.8871 92.8143 64.0116 91.8182 64.6902 91.2787C65.031 91.0073 65.457 90.888 65.8891 90.9414C66.3213 90.9954 66.7047 91.2164 66.9682 91.563L72.33 98.6093C73.3853 99.996 73.9663 101.72 73.9663 103.462V112.672C73.9663 113.405 74.5609 114 75.2945 114C76.028 114 76.6226 113.405 76.6226 112.672V103.462C76.6226 101.142 75.8491 98.8474 74.4441 97.001L69.0818 89.9547Z" fill="#222A3F"/>
<path d="M109.353 90.8864L107.931 75.8947C107.714 73.6032 105.813 71.8745 103.512 71.8745C101.064 71.8745 99.0722 73.8662 99.0722 76.3139V88.2956C99.0722 88.8642 98.8813 89.4255 98.5352 89.8763L98.1446 90.3848C97.8872 89.9407 97.5453 89.537 97.122 89.1998C96.2172 88.4803 95.0873 88.1633 93.9402 88.3059C92.7931 88.4491 91.7758 89.0343 91.0759 89.9547L85.7141 97.001C84.3092 98.8474 83.5352 101.142 83.5352 103.463V112.672C83.5352 113.405 84.1302 114 84.8633 114C85.5969 114 86.1914 113.405 86.1914 112.672V103.462C86.1914 101.72 86.7725 99.996 87.8277 98.6093L93.1895 91.563C93.4536 91.2164 93.837 90.9959 94.2691 90.9414C94.7013 90.888 95.1272 91.0073 95.4681 91.2787C96.1461 91.8182 96.2712 92.8143 95.7493 93.5043L93.4992 96.435C93.0525 97.0171 93.162 97.8508 93.7436 98.2975C94.3252 98.7442 95.1589 98.6347 95.6061 98.0531L97.8488 95.1318C97.853 95.1266 97.8566 95.1214 97.8608 95.1162L100.642 91.4945C101.342 90.5819 101.728 89.4463 101.728 88.2956V76.3139C101.728 75.3308 102.528 74.5308 103.512 74.5308C104.436 74.5308 105.199 75.2249 105.287 76.1458L106.709 91.137C106.77 91.7866 106.588 92.4299 106.199 92.943L94.6354 108C94.4574 108.232 94.361 108.517 94.361 108.809V112.672C94.361 113.405 94.9555 114 95.6891 114C96.4227 114 97.0172 113.405 97.0172 112.672V109.26L108.311 94.5538C109.107 93.5022 109.478 92.1995 109.353 90.8864Z" fill="#222A3F"/>
<path d="M67.2946 60.888C67.762 61.1998 68.3949 61.1801 68.8401 60.8372C69.2587 60.5145 69.4554 59.9511 69.3142 59.4395C69.1633 58.8912 68.6725 58.4886 68.1023 58.4575C67.5379 58.4268 67.0051 58.7713 66.7981 59.2958C66.5708 59.8722 66.781 60.5425 67.2946 60.888Z" fill="#222A3F"/>
</g>
<defs>
<clipPath id="clip0_14_16029">
<rect width="68" height="68" fill="white" transform="translate(46 46)"/>
</clipPath>
</defs>
</svg>
