<svg width="32" height="17" viewBox="0 0 32 17" fill="none" xmlns="http://www.w3.org/2000/svg">
<path fill-rule="evenodd" clip-rule="evenodd" d="M24.3431 1.42864L30.7071 7.7926C31.0976 8.18312 31.0976 8.81629 30.7071 9.20681L24.3431 15.5708C23.9526 15.9613 23.3195 15.9613 22.9289 15.5708C22.5384 15.1802 22.5384 14.5471 22.9289 14.1566L27.5858 9.4997L7 9.4997C6.44772 9.4997 6 9.05199 6 8.4997C6 7.94742 6.44772 7.4997 7 7.4997L27.5858 7.4997L22.9289 2.84285C22.5384 2.45232 22.5384 1.81916 22.9289 1.42864C23.3195 1.03811 23.9526 1.03811 24.3431 1.42864Z" fill="#2F73F6" stroke="#2F73F6" stroke-width="0.6" stroke-linejoin="round"/>
<circle cx="2" cy="8.5" r="1" fill="#2F73F6" stroke="#2F73F6" stroke-width="0.6"/>
</svg>
