<svg width="36" height="23" viewBox="0 0 36 23" fill="none" xmlns="http://www.w3.org/2000/svg">
<path fill-rule="evenodd" clip-rule="evenodd" d="M1.18339 11.0905L1.99921 11.6688L1.18339 12.2471L0.773437 11.6688L1.18339 11.0905ZM3.2534 11.6688C3.36524 11.5265 3.49756 11.3612 3.64932 11.1767C4.20078 10.5063 5.00615 9.58565 6.01648 8.5914C8.05059 6.58967 10.8541 4.35076 14.038 3.20421C14.5576 3.01709 14.8272 2.44416 14.6401 1.92454C14.4529 1.40492 13.88 1.13538 13.3604 1.3225C9.7866 2.60945 6.74012 5.07327 4.61366 7.16589C3.5437 8.21882 2.69114 9.19327 2.10474 9.90615C1.81128 10.2629 1.58376 10.555 1.4283 10.7598C1.35055 10.8622 1.29076 10.9429 1.2497 10.9989C1.22917 11.0269 1.21332 11.0488 1.20223 11.0642L1.1892 11.0823L1.18539 11.0877L1.18417 11.0894C1.18399 11.0897 1.18339 11.0905 1.99921 11.6688C1.18339 12.2471 1.18317 12.2468 1.18339 12.2471L1.18439 12.2485L1.18605 12.2509L1.19136 12.2583L1.2099 12.2841C1.22576 12.306 1.2486 12.3374 1.27825 12.3775C1.33753 12.4579 1.42407 12.5734 1.53652 12.7192C1.76134 13.0107 2.09014 13.4235 2.51208 13.9172C3.35476 14.9032 4.57516 16.2193 6.08663 17.5381C9.07783 20.148 13.3599 22.9004 18.1992 22.9004C23.0385 22.9004 27.3206 20.148 30.3118 17.5381C31.8233 16.2193 33.0437 14.9032 33.8863 13.9172C34.3083 13.4235 34.6371 13.0107 34.8619 12.7192C34.9743 12.5734 35.0609 12.4579 35.1202 12.3775C35.1498 12.3374 35.1726 12.306 35.1885 12.2841L35.2071 12.2583L35.2124 12.2509L35.214 12.2485C35.2143 12.2482 35.215 12.2471 34.3992 11.6688L35.215 12.2471L35.625 11.6688L35.215 11.0905L34.3992 11.6688C35.215 11.0905 35.2152 11.0907 35.215 11.0905L35.2143 11.0894L35.2092 11.0823L35.1962 11.0642C35.1851 11.0488 35.1692 11.0269 35.1487 10.9989C35.1077 10.9429 35.0479 10.8622 34.9701 10.7598C34.8147 10.555 34.5871 10.2629 34.2937 9.90615C33.7073 9.19327 32.8547 8.21882 31.7848 7.16589C29.6583 5.07327 26.6118 2.60945 23.038 1.3225C22.5184 1.13538 21.9455 1.40492 21.7584 1.92454C21.5712 2.44416 21.8408 3.01709 22.3604 3.20421C25.5443 4.35076 28.3478 6.58967 30.3819 8.5914C31.3923 9.58565 32.1976 10.5063 32.7491 11.1767C32.9009 11.3612 33.0332 11.5265 33.145 11.6688C32.9473 11.9204 32.6857 12.2436 32.3659 12.6178C31.5691 13.5502 30.417 14.792 28.9969 16.0311C26.1248 18.537 22.3069 20.9004 18.1992 20.9004C14.0915 20.9004 10.2736 18.537 7.40152 16.0311C5.98138 14.792 4.82934 13.5502 4.03249 12.6178C3.71269 12.2436 3.45112 11.9204 3.2534 11.6688Z" fill="#2F73F6"/>
<path fill-rule="evenodd" clip-rule="evenodd" d="M13.5 11.5V11.4999C13.4999 9.02035 15.5201 7 18 7C20.4797 7 22.5 9.02033 22.5 11.5C22.5 13.9797 20.4797 16 18 16C15.5203 16 13.5 13.9797 13.5 11.5ZM11.5 11.5C11.4999 7.91576 14.4156 5 18 5C21.5842 5 24.5 7.91576 24.5 11.5C24.5 15.0842 21.5842 18 18 18C14.4158 18 11.5 15.0842 11.5 11.5Z" fill="#2F73F6"/>
<path d="M19.25 1.875C19.25 2.49632 18.7463 3 18.125 3C17.5037 3 17 2.49632 17 1.875C17 1.25368 17.5037 0.75 18.125 0.75C18.7463 0.75 19.25 1.25368 19.25 1.875Z" fill="#2F73F6"/>
</svg>
