<svg width="36" height="36" viewBox="0 0 36 36" fill="none" xmlns="http://www.w3.org/2000/svg">
<g opacity="0.8">
<path fill-rule="evenodd" clip-rule="evenodd" d="M18 34C26.8366 34 34 26.8366 34 18C34 9.16344 26.8366 2 18 2C9.16344 2 2 9.16344 2 18C2 26.8366 9.16344 34 18 34ZM18 36C27.9411 36 36 27.9411 36 18C36 8.05887 27.9411 0 18 0C8.05887 0 0 8.05887 0 18C0 27.9411 8.05887 36 18 36Z" fill="#9594AA"/>
<path d="M11 13C11 12.4477 11.4477 12 12 12H24C24.5523 12 25 12.4477 25 13C25 13.5523 24.5523 14 24 14H12C11.4477 14 11 13.5523 11 13Z" fill="#9594AA"/>
<path d="M11 23C11 22.4477 11.4477 22 12 22H21C21.5523 22 22 22.4477 22 23C22 23.5523 21.5523 24 21 24H12C11.4477 24 11 23.5523 11 23Z" fill="#9594AA"/>
<path d="M11 18C11 17.4477 11.4477 17 12 17H18.9999C19.5522 17 19.9999 17.4477 19.9999 18C19.9999 18.5523 19.5522 19 18.9999 19H12C11.4477 19 11 18.5523 11 18Z" fill="#9594AA"/>
<path d="M22 18C22 17.4477 22.4477 17 23 17H24C24.5523 17 25 17.4477 25 18C25 18.5523 24.5523 19 24 19H23C22.4477 19 22 18.5523 22 18Z" fill="#9594AA"/>
</g>
</svg>
