<svg width="118" height="128" viewBox="0 0 118 128" fill="none" xmlns="http://www.w3.org/2000/svg">
<g filter="url(#filter0_d_14_14024)">
<path d="M54 15.8868C57.094 14.1004 60.906 14.1004 64 15.8868L92.9711 32.6132C96.0652 34.3996 97.9711 37.7008 97.9711 41.2735V74.7265C97.9711 78.2992 96.0652 81.6004 92.9711 83.3867L64 100.113C60.906 101.9 57.094 101.9 54 100.113L25.0289 83.3867C21.9348 81.6004 20.0289 78.2992 20.0289 74.7265V41.2735C20.0289 37.7008 21.9348 34.3996 25.0289 32.6132L54 15.8868Z" fill="white"/>
</g>
<g clip-path="url(#clip0_14_14024)">
<circle cx="50.5" cy="62.5" r="10.5" fill="#D9E1EF" fill-opacity="0.5"/>
<circle cx="67.5" cy="62.5" r="10.5" fill="#C4B3E8"/>
<path d="M47.4357 59.7545C47.2903 59.6091 47.0895 59.5255 46.8831 59.5255C46.6776 59.5255 46.4759 59.6091 46.3305 59.7545C46.1852 59.8998 46.1016 60.1015 46.1016 60.307C46.1016 60.5134 46.1852 60.7143 46.3305 60.8604C46.4759 61.0058 46.6776 61.0886 46.8831 61.0886C47.0887 61.0886 47.2904 61.0058 47.4357 60.8604C47.5811 60.7142 47.6647 60.5134 47.6647 60.307C47.6647 60.1015 47.5811 59.8998 47.4357 59.7545Z" fill="#222A3F"/>
<path d="M54.8068 59.7545C54.6615 59.6091 54.4598 59.5255 54.2542 59.5255C54.0487 59.5255 53.847 59.6091 53.7016 59.7545C53.5563 59.8998 53.4727 60.1015 53.4727 60.307C53.4727 60.5134 53.5563 60.7143 53.7016 60.8604C53.847 61.0058 54.0487 61.0886 54.2542 61.0886C54.4598 61.0886 54.6615 61.0058 54.8068 60.8604C54.9522 60.7142 55.0358 60.5126 55.0358 60.307C55.0358 60.1015 54.9522 59.8998 54.8068 59.7545Z" fill="#222A3F"/>
<path d="M53.3721 64.0465C52.955 63.9348 52.5267 64.1829 52.4152 64.5999C52.1918 65.436 51.4322 66.02 50.5679 66.02C49.7036 66.02 48.9439 65.436 48.7205 64.5999C48.6091 64.1827 48.1807 63.9346 47.7636 64.0465C47.3466 64.158 47.0989 64.5863 47.2103 65.0034C47.6161 66.5224 48.9968 67.5833 50.5679 67.5833C52.139 67.5833 53.5197 66.5224 53.9255 65.0034C54.0368 64.5863 53.789 64.1579 53.3721 64.0465Z" fill="#222A3F"/>
<path d="M59.0082 40.1246C58.5765 40.1246 58.2266 40.4745 58.2266 40.9062V45.8683C58.2266 46.3 58.5765 46.6499 59.0082 46.6499C59.4399 46.6499 59.7898 46.3 59.7898 45.8683V40.9062C59.7898 40.4745 59.4399 40.1246 59.0082 40.1246Z" fill="#222A3F"/>
<path d="M59.5607 48.0777C59.4152 47.9316 59.2136 47.8488 59.0081 47.8488C58.8018 47.8488 58.6009 47.9316 58.4548 48.0777C58.3094 48.2231 58.2266 48.4248 58.2266 48.6303C58.2266 48.8359 58.3095 49.0376 58.4548 49.1829C58.6009 49.3283 58.8018 49.4119 59.0081 49.4119C59.2137 49.4119 59.4154 49.3283 59.5607 49.1829C59.706 49.0375 59.7897 48.8359 59.7897 48.6303C59.7897 48.4248 59.706 48.2231 59.5607 48.0777Z" fill="#222A3F"/>
<path d="M54.2475 47.2305L52.2521 45.2367C51.9467 44.9316 51.4517 44.9318 51.1467 45.2372C50.8416 45.5426 50.8417 46.0374 51.1471 46.3426L53.1426 48.3364C53.2952 48.4889 53.4951 48.5651 53.695 48.5651C53.8952 48.5651 54.0954 48.4886 54.248 48.3359C54.5531 48.0305 54.5529 47.5356 54.2475 47.2305Z" fill="#222A3F"/>
<path d="M66.8736 45.2388C66.5682 44.9336 66.0733 44.9338 65.7682 45.2391L63.6467 47.3624C63.3415 47.6677 63.3418 48.1627 63.6471 48.4677C63.7997 48.6203 63.9996 48.6965 64.1995 48.6965C64.3997 48.6965 64.5998 48.6201 64.7524 48.4674L66.8739 46.3441C67.1791 46.0388 67.1789 45.5438 66.8736 45.2388Z" fill="#222A3F"/>
<path d="M78.6045 59.3078C76.9536 53.1463 70.5978 49.4769 64.4365 51.128C62.3218 51.6946 60.4536 52.8212 58.9944 54.3813C56.8111 52.056 53.7895 50.7391 50.5681 50.7391C44.1895 50.7391 39 55.9286 39 62.3073C39 68.6859 44.1895 73.8754 50.5681 73.8754C53.7926 73.8754 56.819 72.5544 59.003 70.2234C61.1657 72.5165 64.2156 73.8714 67.4332 73.8714C68.4214 73.8714 69.4258 73.7435 70.4246 73.4759C76.5859 71.8249 80.2555 65.4691 78.6045 59.3078ZM50.5681 72.3121C45.0513 72.3121 40.5632 67.8239 40.5632 62.3072C40.5632 56.7905 45.0513 52.3023 50.5681 52.3023C53.424 52.3023 56.0987 53.4991 57.9969 55.6055C57.7895 55.8988 57.5941 56.2028 57.4122 56.5177C55.8672 59.1937 55.4568 62.3112 56.2566 65.2958C56.6235 66.6656 57.223 67.912 58.0013 69.0044C56.1027 71.1136 53.425 72.3121 50.5681 72.3121ZM70.02 71.9659C64.6913 73.3933 59.1944 70.2201 57.7666 64.8914C57.0749 62.3101 57.4298 59.6138 58.766 57.2995C59.0126 56.8725 59.2872 56.4681 59.5871 56.0879C59.6001 56.073 59.6121 56.0575 59.6238 56.0418C60.9465 54.3853 62.7552 53.1969 64.841 52.638C65.7052 52.4065 66.5733 52.2959 67.4282 52.2959C71.8451 52.2959 75.8981 55.2479 77.0944 59.7124C78.5223 65.0412 75.3487 70.538 70.02 71.9659Z" fill="#222A3F"/>
<path d="M65.1416 60.7695C64.8998 59.8665 63.9687 59.3285 63.0653 59.5706C62.1623 59.8126 61.6246 60.744 61.8666 61.647C61.9602 61.9962 62.2759 62.2266 62.6211 62.2266C62.688 62.2266 62.7562 62.2179 62.8238 62.1997C63.2409 62.0879 63.4883 61.6595 63.3765 61.2424C63.3576 61.1721 63.3995 61.0995 63.4698 61.0806C63.5134 61.0691 63.5484 61.0814 63.5701 61.0938C63.5916 61.1063 63.6199 61.1304 63.6316 61.174C63.7434 61.5909 64.1718 61.8385 64.5889 61.7266C65.006 61.615 65.2533 61.1865 65.1416 60.7695Z" fill="#222A3F"/>
<path d="M72.2164 58.8736C72.0991 58.4362 71.8187 58.0706 71.4265 57.8441C71.0343 57.6178 70.5774 57.5576 70.1401 57.6748C69.7027 57.792 69.337 58.0725 69.1107 58.4647C68.8843 58.8569 68.8241 59.3137 68.9413 59.7512C69.0349 60.1004 69.3507 60.3307 69.6959 60.3307C69.7627 60.3306 69.8309 60.322 69.8987 60.3038C70.3156 60.192 70.563 59.7635 70.4513 59.3465C70.4397 59.3029 70.452 59.268 70.4645 59.2463C70.477 59.2247 70.501 59.1965 70.5447 59.1848C70.5883 59.1732 70.6234 59.1856 70.6449 59.198C70.6665 59.2105 70.6947 59.2345 70.7064 59.2782C70.8181 59.6951 71.2466 59.9426 71.6637 59.8308C72.0807 59.7191 72.3281 59.2906 72.2164 58.8736Z" fill="#222A3F"/>
<path d="M71.5338 63.7781C71.422 63.3612 70.9934 63.1136 70.5764 63.2254C70.1594 63.3372 69.9121 63.7656 70.0238 64.1827C70.2897 65.1752 69.6985 66.1992 68.706 66.4652C68.225 66.5941 67.7228 66.5278 67.2918 66.279C66.8607 66.03 66.5523 65.6282 66.4235 65.1474C66.3117 64.7304 65.8832 64.4827 65.4662 64.5947C65.0492 64.7065 64.8018 65.135 64.9135 65.552C65.1505 66.4362 65.7175 67.1752 66.5103 67.6328C67.0382 67.9377 67.6243 68.0935 68.2182 68.0935C68.5159 68.0935 68.8155 68.0544 69.1107 67.9752C70.9358 67.4861 72.0228 65.6032 71.5338 63.7781Z" fill="#222A3F"/>
</g>
<defs>
<filter id="filter0_d_14_14024" x="0.0273438" y="0.547012" width="117.945" height="126.906" filterUnits="userSpaceOnUse" color-interpolation-filters="sRGB">
<feFlood flood-opacity="0" result="BackgroundImageFix"/>
<feColorMatrix in="SourceAlpha" type="matrix" values="0 0 0 0 0 0 0 0 0 0 0 0 0 0 0 0 0 0 127 0" result="hardAlpha"/>
<feOffset dy="6"/>
<feGaussianBlur stdDeviation="10"/>
<feColorMatrix type="matrix" values="0 0 0 0 0.237802 0 0 0 0 0.273754 0 0 0 0 0.4625 0 0 0 0.08 0"/>
<feBlend mode="normal" in2="BackgroundImageFix" result="effect1_dropShadow_14_14024"/>
<feBlend mode="normal" in="SourceGraphic" in2="effect1_dropShadow_14_14024" result="shape"/>
</filter>
<clipPath id="clip0_14_14024">
<rect width="40" height="40" fill="white" transform="translate(39 37)"/>
</clipPath>
</defs>
</svg>
