<svg width="118" height="128" viewBox="0 0 118 128" fill="none" xmlns="http://www.w3.org/2000/svg">
<g filter="url(#filter0_d_14_14009)">
<path d="M54 15.8868C57.094 14.1004 60.906 14.1004 64 15.8868L92.9711 32.6132C96.0652 34.3996 97.9711 37.7008 97.9711 41.2735V74.7265C97.9711 78.2992 96.0652 81.6004 92.9711 83.3867L64 100.113C60.906 101.9 57.094 101.9 54 100.113L25.0289 83.3867C21.9348 81.6004 20.0289 78.2992 20.0289 74.7265V41.2735C20.0289 37.7008 21.9348 34.3996 25.0289 32.6132L54 15.8868Z" fill="white"/>
</g>
<g clip-path="url(#clip0_14_14009)">
<path d="M42 69.5H50C50 68.7 50.3333 66.8333 50.5 66L53.5 62.5L57 58C57.1667 57.6667 57.5 56.9 57.5 56.5C57.5 56 56 55.5 55 55.5C54.2 55.5 53 56.5 52.5 57V49C52.5 48.5 52 47 51 47C50.2 47 49.6667 47.3333 49.5 47.5C49.5 47.3333 49.4 46.8 49 46C48.5 45 48 45 47 45C46.2 45 46 46 46 46.5C45.8333 47 45.4 47.9 45 47.5C44.5 47 43.5 47.5 43 48C42.5 48.5 42.5 49 41 49C39.8 49 39.5 50.3333 39.5 51V62C39.5 63 41 65.5 41.5 66.5C41.9 67.3 42 68.8333 42 69.5Z" fill="#D9D8E4" fill-opacity="0.5"/>
<path d="M76 69.5H68C68 68.7 67.6667 66.8333 67.5 66L64.5 62.5L61 58C60.8333 57.6667 60.5 56.9 60.5 56.5C60.5 56 62 55.5 63 55.5C63.8 55.5 65 56.5 65.5 57V49C65.5 48.5 66 47 67 47C67.8 47 68.3333 47.3333 68.5 47.5C68.5 47.3333 68.6 46.8 69 46C69.5 45 70 45 71 45C71.8 45 72 46 72 46.5C72.1667 47 72.6 47.9 73 47.5C73.5 47 74.5 47.5 75 48C75.5 48.5 75.5 49 77 49C78.2 49 78.5 50.3333 78.5 51V62C78.5 63 77 65.5 76.5 66.5C76.1 67.3 76 68.8333 76 69.5Z" fill="#D9D8E4" fill-opacity="0.5"/>
<path d="M54.5 64L52.5 61.5L50 64L52.5 66.5L54.5 64Z" fill="#5FA9FF"/>
<path d="M60 42.5C60.4 42.1 61.1667 41 61.5 40.5C61.6667 40.8333 62.1 41.6 62.5 42C62.9 42.4 64.3333 43.5 65 44C64.5 44.3333 63.4 45.1 63 45.5C62.6 45.9 61.8333 47.3333 61.5 48C61.1667 47.6667 60.4 46.8 60 46C59.6 45.2 58.5 44.3333 58 44C58.5 43.6667 59.6 42.9 60 42.5Z" fill="#5FA9FF"/>
<path d="M53.2415 61.66C53.8815 60.86 54.4815 60.11 55.0815 59.36C55.7015 58.58 56.3215 57.79 56.9515 57.02C57.1115 56.82 57.1015 56.7 56.9015 56.53C56.0015 55.8 54.6815 55.8 53.8015 56.55C53.5315 56.78 53.2915 57.03 53.0515 57.29C52.9815 57.37 52.9315 57.51 52.9315 57.62C52.9215 58.17 52.9315 58.72 52.9215 59.28C52.9215 59.7 52.7115 59.92 52.3615 59.92C52.0215 59.91 51.8215 59.69 51.8215 59.29C51.8215 57.33 51.8215 55.37 51.8215 53.41C51.8215 53.03 52.0415 52.77 52.3615 52.76C52.6815 52.75 52.9215 53.01 52.9215 53.41C52.9215 54.07 52.9215 54.72 52.9215 55.38C52.9215 55.48 52.9215 55.58 52.9215 55.76C53.0615 55.67 53.1515 55.63 53.2215 55.57C54.6015 54.54 56.4915 54.63 57.7615 55.8C58.3415 56.33 58.3915 57.01 57.9015 57.63C56.6415 59.22 55.3815 60.8 54.1115 62.38C53.9415 62.59 53.9715 62.71 54.1715 62.83C54.4615 63.01 54.7515 63.2 55.0515 63.34C55.3715 63.49 55.6315 63.68 55.6315 64.07C55.6315 64.44 55.4115 64.65 55.0815 64.78C54.0915 65.18 53.4215 65.89 53.0615 66.9C52.9415 67.24 52.6815 67.42 52.3515 67.42C52.0415 67.42 51.8115 67.24 51.6715 66.91C51.5515 66.63 51.4115 66.35 51.2515 66.01C50.9315 66.48 50.7815 66.93 50.7215 67.4C50.6615 67.89 50.6515 68.39 50.6515 68.88C50.6515 69.01 50.7115 69.16 50.8015 69.25C51.0415 69.52 51.1715 69.83 51.1715 70.18C51.1815 70.6 51.1815 71.02 51.1715 71.44C51.1615 71.78 51.0415 72.08 50.8115 72.35C50.7215 72.46 50.6515 72.63 50.6515 72.77C50.6415 73.71 50.6515 74.65 50.6415 75.6C50.6415 76.09 50.2415 76.36 49.8415 76.17C49.5915 76.05 49.5315 75.83 49.5315 75.57C49.5315 74.76 49.5315 73.95 49.5315 73.14C49.5315 72.73 49.5315 72.73 49.1115 72.73C48.8315 72.73 48.5615 72.73 48.2815 72.73C47.9215 72.73 47.6815 72.51 47.6715 72.19C47.6615 71.84 47.8715 71.61 48.2515 71.6C48.7415 71.58 49.2415 71.59 49.7315 71.6C49.9615 71.61 50.0315 71.53 50.0215 71.3C50.0015 71 50.0215 70.69 50.0215 70.39C50.0215 70.01 50.0215 70.01 49.6515 70.01C48.5215 70.01 47.3815 70.01 46.2515 70.01C44.9115 70.01 43.5715 70.02 42.2215 70C41.9415 70 41.8515 70.09 41.8715 70.36C41.8915 70.67 41.8915 70.99 41.8715 71.3C41.8615 71.53 41.9515 71.59 42.1715 71.59C43.1215 71.58 44.0715 71.59 45.0315 71.59C45.1315 71.59 45.2215 71.59 45.3215 71.59C45.7615 71.6 46.0315 71.82 46.0315 72.16C46.0315 72.5 45.7515 72.72 45.3115 72.72C44.4515 72.72 43.6015 72.73 42.7415 72.71C42.4815 72.71 42.3915 72.77 42.4015 73.04C42.4215 73.86 42.4215 74.68 42.4015 75.5C42.3915 75.71 42.3015 75.96 42.1515 76.1C42.0415 76.2 41.7715 76.2 41.6015 76.15C41.3715 76.09 41.2815 75.88 41.2815 75.63C41.2815 74.7 41.2815 73.76 41.2815 72.83C41.2815 72.62 41.2215 72.47 41.0915 72.29C40.9215 72.04 40.8015 71.73 40.7715 71.44C40.7215 71.02 40.7515 70.58 40.7615 70.16C40.7715 69.79 40.8815 69.47 41.1515 69.21C41.2115 69.16 41.2715 69.07 41.2715 69C41.2615 68.33 41.3315 67.65 41.1415 66.99C40.9815 66.44 40.7215 65.96 40.3815 65.5C39.4615 64.26 39.0215 62.85 39.0115 61.32C38.9915 57.7 39.0015 54.08 39.0115 50.47C39.0115 49.16 40.0415 48.15 41.3315 48.23C41.6315 48.25 41.9315 48.37 42.2615 48.44C42.4315 47.77 42.8015 47.24 43.4415 46.93C44.0815 46.62 44.7315 46.67 45.4015 46.94C45.3915 45.54 45.9715 44.62 47.3815 44.4C48.0115 44.3 48.5815 44.54 49.0515 44.97C49.5215 45.41 49.7215 45.97 49.7415 46.58C50.0715 46.52 50.3715 46.43 50.6615 46.41C51.8815 46.35 52.8615 47.24 52.9015 48.46C52.9215 49.14 52.9115 49.81 52.9115 50.49C52.9115 50.89 52.7015 51.11 52.3615 51.11C52.0215 51.11 51.8115 50.88 51.8115 50.49C51.8115 49.87 51.8215 49.25 51.8115 48.63C51.7915 47.76 50.9915 47.26 50.2615 47.66C49.9915 47.81 49.8215 48.05 49.7615 48.35C49.7315 48.5 49.7315 48.65 49.7315 48.8C49.7315 50.84 49.7315 52.87 49.7315 54.91C49.7315 55.03 49.7315 55.16 49.7215 55.28C49.6815 55.6 49.4815 55.77 49.1615 55.76C48.8715 55.75 48.6615 55.57 48.6315 55.27C48.6215 55.16 48.6215 55.04 48.6215 54.93C48.6215 52.19 48.6215 49.45 48.6215 46.7C48.6215 46.39 48.5715 46.1 48.3615 45.85C48.0615 45.5 47.6815 45.45 47.2715 45.54C46.9015 45.63 46.6015 46.01 46.5615 46.4C46.5415 46.54 46.5415 46.69 46.5415 46.83C46.5415 49.53 46.5415 52.24 46.5415 54.94C46.5415 55.06 46.5415 55.19 46.5215 55.31C46.4715 55.62 46.2615 55.79 45.9415 55.77C45.6615 55.76 45.4515 55.56 45.4215 55.26C45.4115 55.17 45.4215 55.07 45.4215 54.97C45.4215 52.96 45.4215 50.95 45.4215 48.94C45.4215 48.34 45.1115 47.95 44.5615 47.83C44.0015 47.72 43.4315 48.13 43.3715 48.7C43.3615 48.83 43.3615 48.97 43.3615 49.1C43.3615 51.09 43.3615 53.08 43.3615 55.07C43.3615 55.51 43.1815 55.74 42.8415 55.75C42.4715 55.77 42.2315 55.53 42.2315 55.13C42.2315 54.26 42.2315 53.4 42.2315 52.53C42.2315 51.83 42.2315 51.12 42.2315 50.42C42.2315 49.76 41.8215 49.34 41.2115 49.34C40.6015 49.34 40.1815 49.78 40.1815 50.42C40.1815 54.09 40.1715 57.77 40.1815 61.44C40.1815 62.75 40.6315 63.91 41.4115 64.95C42.1415 65.92 42.4415 67.03 42.4215 68.24C42.4115 68.86 42.4215 68.86 43.0415 68.86C45.0915 68.86 47.1315 68.86 49.1815 68.86C49.5415 68.86 49.5515 68.86 49.5415 68.5C49.5215 67.26 49.6515 66.49 50.4015 65.14C50.1315 65 49.8415 64.88 49.5915 64.72C49.4315 64.62 49.2615 64.48 49.1815 64.32C48.9915 63.92 49.1815 63.53 49.6515 63.35C50.1415 63.15 50.6115 62.89 50.9315 62.47C51.2215 62.09 51.4615 61.66 51.6815 61.24C51.8615 60.88 52.0715 60.69 52.4115 60.71C52.7315 60.72 52.9615 60.91 53.0915 61.27C53.1115 61.38 53.1615 61.49 53.2415 61.66ZM52.4015 65.59C52.6115 65.33 52.8315 65.04 53.0815 64.78C53.3315 64.53 53.6215 64.31 53.8615 64.1C53.3515 63.58 52.8415 63.06 52.3715 62.58C51.8915 63.07 51.3815 63.59 50.9115 64.07C51.3815 64.55 51.8915 65.07 52.4015 65.59Z" fill="#222A3F" stroke="#222A3F" stroke-width="0.2"/>
<path d="M65.0818 55.76C65.0818 55.56 65.0818 55.45 65.0818 55.34C65.0818 53.1 65.0818 50.87 65.0818 48.63C65.0818 47.7 65.4818 47.02 66.3118 46.61C66.8518 46.34 67.4118 46.35 67.9818 46.53C68.0518 46.55 68.1218 46.58 68.1918 46.6C68.2018 46.6 68.2118 46.6 68.2618 46.58C68.2918 45.79 68.6118 45.13 69.3118 44.7C69.7218 44.45 70.1718 44.34 70.6518 44.39C71.2618 44.46 71.7718 44.74 72.1518 45.23C72.5318 45.72 72.6118 46.3 72.6018 46.93C73.2818 46.66 73.9318 46.6 74.5618 46.92C75.1918 47.23 75.5718 47.74 75.7518 48.45C75.8718 48.41 75.9918 48.38 76.1018 48.34C77.2118 47.92 78.5118 48.54 78.8518 49.68C78.9418 49.98 78.9918 50.29 78.9918 50.6C79.0018 52.26 79.0018 53.91 78.9918 55.57C78.9918 55.73 78.9618 55.94 78.8618 56.05C78.7418 56.18 78.5218 56.31 78.3618 56.29C78.1918 56.27 78.0218 56.09 77.9018 55.94C77.8318 55.85 77.8518 55.69 77.8518 55.55C77.8518 53.82 77.8518 52.08 77.8518 50.35C77.8518 49.9 77.5518 49.5 77.1418 49.38C76.7018 49.25 76.2218 49.39 75.9818 49.78C75.8618 49.97 75.8018 50.22 75.8018 50.45C75.7818 52 75.7918 53.55 75.7918 55.11C75.7918 55.52 75.5818 55.76 75.2418 55.77C74.9418 55.78 74.7318 55.62 74.6718 55.32C74.6518 55.21 74.6518 55.09 74.6518 54.98C74.6518 52.97 74.6518 50.96 74.6518 48.95C74.6518 48.4 74.3718 47.99 73.9418 47.87C73.2218 47.67 72.6018 48.14 72.5918 48.9C72.5818 50.32 72.5918 51.74 72.5918 53.16C72.5918 53.84 72.5918 54.51 72.5918 55.19C72.5918 55.45 72.4718 55.65 72.2218 55.74C71.9818 55.83 71.6818 55.74 71.5718 55.52C71.5018 55.37 71.4718 55.17 71.4718 55C71.4618 52.26 71.4718 49.52 71.4618 46.77C71.4618 46.57 71.4518 46.36 71.3918 46.18C71.2218 45.67 70.7418 45.42 70.1818 45.52C69.7518 45.6 69.4018 46.04 69.3918 46.55C69.3818 47.3 69.3918 48.05 69.3918 48.81C69.3918 50.91 69.3918 53.02 69.3918 55.12C69.3918 55.54 69.1718 55.77 68.8018 55.76C68.5318 55.75 68.3318 55.59 68.2918 55.32C68.2718 55.21 68.2718 55.09 68.2718 54.98C68.2718 52.9 68.2718 50.83 68.2718 48.75C68.2718 48.43 68.2418 48.12 68.0118 47.87C67.7118 47.55 67.3518 47.43 66.9218 47.56C66.4618 47.71 66.2418 48.05 66.1918 48.52C66.1818 48.62 66.1818 48.73 66.1818 48.83C66.1818 52.24 66.1818 55.65 66.1818 59.05C66.1818 59.16 66.1818 59.28 66.1718 59.39C66.1418 59.69 65.9118 59.89 65.6118 59.89C65.3118 59.89 65.0818 59.69 65.0718 59.38C65.0518 58.84 65.0518 58.29 65.0718 57.75C65.0818 57.48 64.9918 57.29 64.8018 57.1C64.3318 56.64 63.8818 56.16 63.1918 56.02C62.3718 55.85 61.6518 56.03 61.0118 56.57C60.8418 56.71 60.9118 56.83 61.0118 56.96C61.8618 58.03 62.7118 59.11 63.5718 60.17C64.7518 61.64 65.9418 63.1 67.1318 64.55C68.0318 65.64 68.4618 66.88 68.4418 68.29C68.4318 68.93 68.3818 68.85 69.0118 68.85C71.0818 68.85 73.1418 68.85 75.2118 68.86C75.5018 68.86 75.5918 68.78 75.5818 68.49C75.5318 67.33 75.7418 66.24 76.3818 65.25C76.7018 64.76 77.0318 64.27 77.3018 63.75C77.6418 63.09 77.8018 62.37 77.8218 61.63C77.8418 60.63 77.8218 59.63 77.8318 58.63C77.8318 58.16 78.1618 57.88 78.5618 58.01C78.8318 58.1 78.9818 58.3 78.9718 58.57C78.9418 59.95 79.0918 61.33 78.8218 62.7C78.6218 63.7 78.2618 64.62 77.6318 65.41C76.7918 66.47 76.6318 67.68 76.7118 68.96C76.7118 69.03 76.7718 69.12 76.8218 69.17C77.1018 69.44 77.2118 69.77 77.2218 70.15C77.2318 70.56 77.2318 70.97 77.2218 71.38C77.2118 71.75 77.0918 72.08 76.8218 72.36C76.7418 72.44 76.7018 72.59 76.7018 72.71C76.6918 73.63 76.7018 74.56 76.7018 75.48C76.7018 75.93 76.4918 76.19 76.1418 76.19C75.7918 76.19 75.5818 75.93 75.5718 75.48C75.5718 74.65 75.5618 73.82 75.5718 73C75.5718 72.76 75.5118 72.69 75.2718 72.69C73.1018 72.7 70.9318 72.7 68.7618 72.69C68.5118 72.69 68.4318 72.76 68.4418 73.01C68.4518 73.87 68.4518 74.72 68.4418 75.58C68.4318 76.07 68.0218 76.33 67.6318 76.12C67.4018 76 67.3318 75.79 67.3318 75.54C67.3318 74.61 67.3418 73.67 67.3218 72.74C67.3218 72.59 67.2418 72.41 67.1518 72.29C66.9518 72.03 66.8118 71.76 66.8118 71.43C66.8018 70.98 66.8018 70.53 66.8118 70.09C66.8218 69.76 66.9518 69.47 67.1718 69.21C67.2618 69.11 67.3218 68.95 67.3318 68.81C67.3618 68.03 67.3718 67.23 67.0218 66.52C66.7718 66.01 66.4718 65.52 66.1218 65.08C64.2418 62.71 62.3318 60.36 60.4418 58.01C60.2718 57.8 60.1018 57.6 59.9618 57.37C59.6518 56.87 59.7418 56.24 60.1618 55.83C61.4418 54.58 63.3718 54.46 64.8018 55.54C64.8718 55.63 64.9418 55.67 65.0818 55.76ZM72.0518 69.99C70.8018 69.99 69.5618 70 68.3118 69.99C68.0618 69.99 67.9418 70.04 67.9618 70.32C67.9818 70.63 67.9818 70.95 67.9618 71.26C67.9418 71.51 68.0318 71.59 68.2818 71.58C69.5018 71.57 70.7218 71.57 71.9318 71.57C73.2218 71.57 74.5218 71.57 75.8118 71.57C76.0318 71.57 76.1218 71.5 76.1118 71.28C76.1018 70.97 76.0918 70.65 76.1118 70.34C76.1318 70.07 76.0318 69.98 75.7518 69.98C74.5318 70 73.2918 69.99 72.0518 69.99Z" fill="#222A3F" stroke="#222A3F" stroke-width="0.2"/>
<path d="M61.4228 48.58C61.0628 48.58 60.7928 48.4 60.6728 48.04C60.1528 46.53 59.1428 45.51 57.6628 44.93C57.3028 44.79 57.1328 44.54 57.1328 44.2C57.1328 43.83 57.3228 43.59 57.6528 43.46C59.1428 42.88 60.1528 41.85 60.6728 40.33C60.7828 40.01 61.1028 39.79 61.4128 39.79C61.7628 39.79 62.0228 40.04 62.2028 40.43C62.4328 40.93 62.6728 41.43 62.9928 41.87C63.5228 42.61 64.2728 43.1 65.1128 43.44C65.5428 43.62 65.7128 43.84 65.7028 44.22C65.6928 44.61 65.4528 44.83 65.1028 44.97C63.6828 45.54 62.7028 46.53 62.1928 47.99C62.0428 48.38 61.7928 48.58 61.4228 48.58ZM61.4128 41.51C60.7828 42.69 59.9328 43.55 58.8528 44.15C59.3428 44.55 59.8628 44.9 60.2928 45.33C60.7228 45.76 61.0528 46.28 61.4628 46.8C62.0528 45.7 62.9128 44.83 64.0628 44.18C62.8828 43.55 62.0528 42.67 61.4128 41.51Z" fill="#222A3F" stroke="#222A3F" stroke-width="0.2"/>
</g>
<defs>
<filter id="filter0_d_14_14009" x="0.0273438" y="0.547012" width="117.945" height="126.906" filterUnits="userSpaceOnUse" color-interpolation-filters="sRGB">
<feFlood flood-opacity="0" result="BackgroundImageFix"/>
<feColorMatrix in="SourceAlpha" type="matrix" values="0 0 0 0 0 0 0 0 0 0 0 0 0 0 0 0 0 0 127 0" result="hardAlpha"/>
<feOffset dy="6"/>
<feGaussianBlur stdDeviation="10"/>
<feColorMatrix type="matrix" values="0 0 0 0 0.237802 0 0 0 0 0.273754 0 0 0 0 0.4625 0 0 0 0.08 0"/>
<feBlend mode="normal" in2="BackgroundImageFix" result="effect1_dropShadow_14_14009"/>
<feBlend mode="normal" in="SourceGraphic" in2="effect1_dropShadow_14_14009" result="shape"/>
</filter>
<clipPath id="clip0_14_14009">
<rect width="40" height="40" fill="white" transform="translate(39 38)"/>
</clipPath>
</defs>
</svg>
