<svg width="118" height="128" viewBox="0 0 118 128" fill="none" xmlns="http://www.w3.org/2000/svg">
<g filter="url(#filter0_d_14_14066)">
<path d="M54 15.8868C57.094 14.1004 60.906 14.1004 64 15.8868L92.9711 32.6132C96.0652 34.3996 97.9711 37.7008 97.9711 41.2735V74.7265C97.9711 78.2992 96.0652 81.6004 92.9711 83.3867L64 100.113C60.906 101.9 57.094 101.9 54 100.113L25.0289 83.3867C21.9348 81.6004 20.0289 78.2992 20.0289 74.7265V41.2735C20.0289 37.7008 21.9348 34.3996 25.0289 32.6132L54 15.8868Z" fill="white"/>
</g>
<g clip-path="url(#clip0_14_14066)">
<path d="M63 70L59.5 67.5L59 67L57 69L55 70V71.5V73L56 73.5L56.5 75H61.5V73.5H62.5L63 72L62.5 71L63 70Z" fill="#FF9696"/>
<path d="M65 69C64.5 69.5 62 69.5 61.5 69.5C61.1 69.5 60 68.1667 59.5 67.5L59 67L58.5 68L57 69L55 69.5C54.6667 69.5 53.8 69.4 53 69C52 68.5 52 66.5 51 66C50 65.5 48.5 64 48 63C47.5 62 47.5 61.5 47.5 57.5C47.5 53.5 48 51 49 50C49.8 49.2 51 48.6667 51.5 48.5C51.6667 48 52.1 46.9 52.5 46.5C53 46 54 45 55 45C55.8 45 57 45.6667 57.5 46L59 47.5L60.5 46C61 45.8333 62.2 45.4 63 45C63.8 44.6 65 45.8333 65.5 46.5C65.8333 47.1667 66.8 48.6 68 49C69.2 49.4 69.8333 50.8333 70 51.5V61C70 62 70 62.5 69.5 64C69.1 65.2 67.3333 65.8333 66.5 66C66.1667 66.8333 65.4 68.6 65 69Z" fill="#D9D8E4" fill-opacity="0.5"/>
<path d="M47.7175 46.7994C48.1994 47.2809 48.9444 46.5354 48.4623 46.054L47.0844 44.6775C46.6025 44.1959 45.8576 44.9415 46.3396 45.4229L47.7175 46.7994Z" fill="#222A3F" stroke="#222A3F" stroke-width="0.5"/>
<path d="M42.1162 53.3337L43.9984 53.8376C44.6335 54.0074 44.9219 52.9939 44.2709 52.8196L42.3887 52.3157C41.7306 52.1397 41.4581 53.1575 42.1162 53.3337Z" fill="#222A3F" stroke="#222A3F" stroke-width="0.5"/>
<path d="M44.0294 60.7717L42.1472 61.2755C41.4978 61.4494 41.7903 62.4621 42.4197 62.2935L44.3019 61.7897C44.96 61.6135 44.6874 60.5957 44.0294 60.7717Z" fill="#222A3F" stroke="#222A3F" stroke-width="0.5"/>
<path d="M47.7995 67.7798L46.4217 69.1562C45.9396 69.6377 46.6846 70.3832 47.1664 69.9017L48.5443 68.5253C49.0263 68.0439 48.2814 67.2983 47.7995 67.7798Z" fill="#222A3F" stroke="#222A3F" stroke-width="0.5"/>
<path d="M70.2914 67.6976C69.8095 67.216 69.0646 67.9617 69.5466 68.4431L70.9245 69.8195C71.4063 70.301 72.1513 69.5555 71.6692 69.074L70.2914 67.6976Z" fill="#222A3F" stroke="#222A3F" stroke-width="0.5"/>
<path d="M75.8919 61.1633L74.0098 60.6595C73.3516 60.4834 73.0792 61.5013 73.7373 61.6775L75.6195 62.1813C76.2545 62.3513 76.5428 61.3376 75.8919 61.1633Z" fill="#222A3F" stroke="#222A3F" stroke-width="0.5"/>
<path d="M73.8439 53.7433C73.889 53.7433 73.9348 53.7375 73.9804 53.7253L75.8626 53.2214C76.5207 53.0452 76.2481 52.0269 75.5901 52.2034L73.7079 52.7073C73.1183 52.8652 73.2551 53.7433 73.8439 53.7433Z" fill="#222A3F" stroke="#222A3F" stroke-width="0.5"/>
<path d="M69.8381 46.8714C69.9728 46.8714 70.1076 46.8201 70.2105 46.7173L71.5883 45.3408C72.0704 44.8594 71.3255 44.1138 70.8435 44.5953L69.4657 45.9718C69.1526 46.2845 69.3956 46.8714 69.8381 46.8714Z" fill="#222A3F" stroke="#222A3F" stroke-width="0.5"/>
<path d="M62.7929 42.9033C63.0509 42.9726 63.3685 42.7909 63.4383 42.5309L63.9427 40.6506C64.1191 39.9926 63.1013 39.7196 62.9248 40.3776L62.4205 42.2578C62.3451 42.539 62.5118 42.8279 62.7929 42.9033Z" fill="#222A3F" stroke="#222A3F" stroke-width="0.5"/>
<path d="M54.4584 42.561C54.6319 43.2075 55.6533 42.9481 55.4763 42.2879L54.9719 40.4076C54.7954 39.7497 53.7776 40.0226 53.9541 40.6807L54.4584 42.561Z" fill="#222A3F" stroke="#222A3F" stroke-width="0.5"/>
<path d="M70.7665 53.1705C70.7665 50.8067 69.1525 48.8125 66.9677 48.23C66.8115 47.2932 66.3465 46.4344 65.6384 45.7862C63.632 43.8978 60.2608 44.5098 59.0057 46.8803C58.8913 46.6718 58.7593 46.4723 58.6105 46.2849C57.5328 44.9262 55.693 44.3473 54.0324 44.8437C52.4793 45.3081 51.3102 46.6483 51.0432 48.2324C50.1518 48.4713 49.3288 48.9486 48.6806 49.6191C48.2083 50.1077 48.9629 50.8431 49.4382 50.3515C50.1999 49.5636 51.2654 49.1118 52.3616 49.1118C53.0589 49.0879 53.059 48.082 52.3616 48.058H52.1617C52.4604 47.0197 53.2799 46.1687 54.3343 45.8534C55.5857 45.4791 56.9726 45.9157 57.785 46.9398C58.2128 47.479 58.4572 48.1493 58.4784 48.8373L58.4783 65.9114C58.439 67.1594 57.6511 68.3067 56.4933 68.7871C55.2929 69.2854 53.8349 68.9793 52.9343 68.0408C52.5691 67.6603 52.3038 67.1947 52.1608 66.6926H52.3615C53.0345 66.6926 53.0477 65.6562 52.3749 65.6389C50.7871 65.5984 49.3896 64.7509 48.7277 63.4273C48.4493 62.8703 48.3742 62.331 48.2908 61.7232C48.2426 59.6719 48.2627 57.6067 48.2823 55.6091C48.2907 54.7461 48.2994 53.8539 48.3027 52.9655C48.3053 52.2839 47.2516 52.2808 47.2489 52.9615C47.2381 55.9204 47.1675 58.7818 47.2379 61.7787C47.2926 63.9867 48.8821 65.9588 51.0406 66.5042C51.1794 67.3514 51.5756 68.1473 52.1738 68.7706C52.7765 69.3985 53.5491 69.8124 54.3722 69.9874C54.3526 70.418 54.497 70.8436 54.7874 71.1642C53.9188 72.1034 54.5002 73.6753 55.7669 73.831C55.364 74.8468 56.1702 76.0217 57.269 75.9997H60.7416C61.8399 76.0218 62.6474 74.8466 62.2438 73.8309C63.511 73.675 64.0915 72.1029 63.2233 71.1641C63.5122 70.845 63.657 70.4219 63.6385 69.9931C65.3159 69.6617 66.7088 68.2111 66.9676 66.5206C69.1523 65.9381 70.7664 63.9438 70.7664 61.5801V53.1705H70.7665ZM60.7418 74.9459H57.2692C56.5499 74.9214 56.5361 73.89 57.2525 73.8446H60.7585C61.4754 73.8902 61.4605 74.9217 60.7418 74.9459ZM62.0341 72.7908H55.9769C55.2802 72.7697 55.2346 71.7793 55.923 71.6919C55.9409 71.6925 55.9589 71.6928 55.9769 71.6928H58.584C59.2652 71.6928 59.2652 70.639 58.584 70.639H56.0382C55.7055 70.6004 55.483 70.4265 55.4262 70.0795C55.9246 70.0618 56.4233 69.9572 56.8972 69.7604C57.8039 69.3842 58.5396 68.6998 59.0011 67.8617C59.7028 69.1399 61.04 70.0226 62.5849 70.0822C62.5009 70.5424 62.2345 70.6385 61.8157 70.639C61.1344 70.639 61.1344 71.6928 61.8157 71.6928C61.9062 71.6933 61.9975 71.6949 62.088 71.6919C62.7764 71.7795 62.7309 72.7696 62.0341 72.7908ZM69.7127 61.58C69.7127 63.818 67.8899 65.6387 65.6494 65.6387C64.9522 65.6625 64.9517 66.6685 65.6494 66.6925H65.8521C64.8115 70.1948 59.7078 69.5803 59.5325 65.9108L59.5326 48.8383C59.7103 45.1671 64.8132 44.5586 65.8521 48.0579H65.6494C65.3584 48.0579 65.1225 48.2938 65.1225 48.5848C65.1225 48.8759 65.3584 49.1118 65.6494 49.1118C67.8899 49.1118 69.7127 50.9325 69.7127 53.1704V61.58Z" fill="#222A3F" stroke="#222A3F" stroke-width="0.5"/>
<path d="M65.9467 61.2139C63.6196 61.2139 61.7266 63.1053 61.7266 65.4302C61.7266 65.7213 61.9625 65.9571 62.2535 65.9571C62.5445 65.9571 62.7804 65.7213 62.7804 65.4302C62.7804 63.6865 64.2008 62.2677 65.9467 62.2677C66.6427 62.2446 66.6452 61.238 65.9467 61.2139Z" fill="#222A3F" stroke="#222A3F" stroke-width="0.5"/>
<path d="M52.0622 62.2677C53.8081 62.2677 55.2285 63.6864 55.2285 65.4302C55.2285 65.7213 55.4644 65.9571 55.7554 65.9571C56.0464 65.9571 56.2823 65.7213 56.2823 65.4302C56.2823 63.1053 54.3891 61.2139 52.0622 61.2139C51.3653 61.238 51.3641 62.2432 52.0622 62.2677Z" fill="#222A3F" stroke="#222A3F" stroke-width="0.5"/>
<path d="M55.7552 49.3159C55.4643 49.3159 55.2283 49.5517 55.2283 49.8428C55.2283 51.5866 53.8079 53.0054 52.0621 53.0054C51.7711 53.0054 51.5352 53.2412 51.5352 53.5323C51.5352 53.8233 51.7711 54.0592 52.0621 54.0592C54.3891 54.0592 56.2822 52.1677 56.2822 49.8428C56.2822 49.5517 56.0462 49.3159 55.7552 49.3159Z" fill="#222A3F" stroke="#222A3F" stroke-width="0.5"/>
<path d="M65.9467 53.0053C64.2008 53.0053 62.7804 51.5866 62.7804 49.8427C62.7804 49.5517 62.5445 49.3158 62.2535 49.3158C61.9625 49.3158 61.7266 49.5517 61.7266 49.8427C61.7266 52.1677 63.6197 54.0591 65.9467 54.0591C66.6435 54.035 66.6447 53.0297 65.9467 53.0053Z" fill="#222A3F" stroke="#222A3F" stroke-width="0.5"/>
<path d="M56.1264 55.3269C55.9207 55.1211 55.5871 55.1209 55.3812 55.3266C54.8331 55.8741 54.5312 56.6017 54.5312 57.3752C54.5312 58.1488 54.8331 58.8763 55.3812 59.4239C55.8631 59.9053 56.608 59.1599 56.126 58.6784C55.4096 57.9914 55.4096 56.7591 56.126 56.072C56.3319 55.8665 56.332 55.5328 56.1264 55.3269Z" fill="#222A3F" stroke="#222A3F" stroke-width="0.5"/>
<path d="M61.851 59.4236C62.0993 59.6295 62.3477 59.6296 62.5962 59.424C63.7219 58.3446 63.7219 56.4059 62.5962 55.3267C62.1142 54.8452 61.3693 55.5907 61.8513 56.0721C62.5678 56.7592 62.5678 57.9915 61.8513 58.6785C61.6455 58.8841 61.6453 59.2177 61.851 59.4236Z" fill="#222A3F" stroke="#222A3F" stroke-width="0.5"/>
</g>
<defs>
<filter id="filter0_d_14_14066" x="0.0273438" y="0.547012" width="117.945" height="126.906" filterUnits="userSpaceOnUse" color-interpolation-filters="sRGB">
<feFlood flood-opacity="0" result="BackgroundImageFix"/>
<feColorMatrix in="SourceAlpha" type="matrix" values="0 0 0 0 0 0 0 0 0 0 0 0 0 0 0 0 0 0 127 0" result="hardAlpha"/>
<feOffset dy="6"/>
<feGaussianBlur stdDeviation="10"/>
<feColorMatrix type="matrix" values="0 0 0 0 0.237802 0 0 0 0 0.273754 0 0 0 0 0.4625 0 0 0 0.08 0"/>
<feBlend mode="normal" in2="BackgroundImageFix" result="effect1_dropShadow_14_14066"/>
<feBlend mode="normal" in="SourceGraphic" in2="effect1_dropShadow_14_14066" result="shape"/>
</filter>
<clipPath id="clip0_14_14066">
<rect width="36" height="36" fill="white" transform="translate(41 40)"/>
</clipPath>
</defs>
</svg>
